<svg width="23" height="358" viewBox="0 0 23 358" fill="none" xmlns="http://www.w3.org/2000/svg">
<g opacity="0.501842">
<path d="M5.278 353.604C5.278 352.86 5.416 352.224 5.692 351.696C5.968 351.156 6.34 350.748 6.808 350.472C7.276 350.184 7.786 350.04 8.338 350.04C9.07 350.04 9.676 350.256 10.156 350.688C10.624 351.108 10.942 351.672 11.11 352.38C11.182 351.576 11.47 350.922 11.974 350.418C12.478 349.914 13.162 349.662 14.026 349.662C14.722 349.662 15.352 349.83 15.916 350.166C16.48 350.502 16.924 350.982 17.248 351.606C17.56 352.23 17.716 352.95 17.716 353.766C17.716 354.498 17.584 355.17 17.32 355.782C17.044 356.394 16.636 356.928 16.096 357.384L15.178 356.394C15.586 355.998 15.886 355.596 16.078 355.188C16.27 354.768 16.366 354.312 16.366 353.82C16.366 353.064 16.156 352.47 15.736 352.038C15.304 351.606 14.728 351.39 14.008 351.39C13.216 351.39 12.658 351.594 12.334 352.002C12.01 352.41 11.848 353.004 11.848 353.784V354.684L10.57 354.486V353.874C10.57 353.25 10.384 352.734 10.012 352.326C9.64 351.906 9.118 351.696 8.446 351.696C7.882 351.696 7.438 351.876 7.114 352.236C6.778 352.596 6.61 353.082 6.61 353.694C6.61 354.162 6.694 354.594 6.862 354.99C7.03 355.374 7.306 355.77 7.69 356.178L6.7 357.042C5.752 356.022 5.278 354.876 5.278 353.604ZM13.216 331.724H14.53L14.53 333.29H17.5V334.892H14.53L14.53 340.04H13.342L5.278 336.422L5.854 335.036L13.216 338.294L13.216 334.874L9.976 334.73V333.29H13.216L13.216 331.724ZM15.214 321.038C15.214 320.678 15.334 320.378 15.574 320.138C15.814 319.898 16.108 319.778 16.456 319.778C16.804 319.778 17.104 319.898 17.356 320.138C17.596 320.378 17.716 320.678 17.716 321.038C17.716 321.386 17.596 321.68 17.356 321.92C17.104 322.16 16.804 322.28 16.456 322.28C16.108 322.28 15.814 322.16 15.574 321.92C15.334 321.68 15.214 321.386 15.214 321.038ZM5.278 306.044C5.278 304.712 5.812 303.71 6.88 303.038C7.936 302.354 9.472 302.012 11.488 302.012C13.504 302.012 15.046 302.354 16.114 303.038C17.182 303.71 17.716 304.712 17.716 306.044C17.716 307.376 17.182 308.384 16.114 309.068C15.046 309.74 13.504 310.076 11.488 310.076C9.472 310.076 7.936 309.74 6.88 309.068C5.812 308.384 5.278 307.376 5.278 306.044ZM6.592 306.044C6.592 306.824 6.976 307.406 7.744 307.79C8.512 308.162 9.76 308.348 11.488 308.348C13.216 308.348 14.47 308.162 15.25 307.79C16.018 307.406 16.402 306.824 16.402 306.044C16.402 305.276 16.018 304.7 15.25 304.316C14.47 303.932 13.216 303.74 11.488 303.74C9.772 303.74 8.53 303.932 7.762 304.316C6.982 304.7 6.592 305.276 6.592 306.044ZM6.754 285.469L6.754 290.167H10.3C9.988 289.555 9.832 288.913 9.832 288.241C9.832 287.209 10.174 286.381 10.858 285.757C11.53 285.133 12.46 284.821 13.648 284.821C14.44 284.821 15.148 284.995 15.772 285.343C16.384 285.691 16.864 286.183 17.212 286.819C17.548 287.443 17.716 288.169 17.716 288.997C17.716 289.729 17.59 290.383 17.338 290.959C17.074 291.535 16.69 292.069 16.186 292.561L15.232 291.589C15.616 291.205 15.904 290.809 16.096 290.401C16.276 289.993 16.366 289.531 16.366 289.015C16.366 288.247 16.126 287.647 15.646 287.215C15.166 286.771 14.488 286.549 13.612 286.549C12.736 286.549 12.1 286.747 11.704 287.143C11.308 287.539 11.11 288.073 11.11 288.745C11.11 289.057 11.146 289.345 11.218 289.609C11.278 289.873 11.38 290.155 11.524 290.455L11.524 291.751H5.458L5.458 285.235L6.754 285.469ZM5.278 270.99C5.278 269.658 5.812 268.656 6.88 267.984C7.936 267.3 9.472 266.958 11.488 266.958C13.504 266.958 15.046 267.3 16.114 267.984C17.182 268.656 17.716 269.658 17.716 270.99C17.716 272.322 17.182 273.33 16.114 274.014C15.046 274.686 13.504 275.022 11.488 275.022C9.472 275.022 7.936 274.686 6.88 274.014C5.812 273.33 5.278 272.322 5.278 270.99ZM6.592 270.99C6.592 271.77 6.976 272.352 7.744 272.736C8.512 273.108 9.76 273.294 11.488 273.294C13.216 273.294 14.47 273.108 15.25 272.736C16.018 272.352 16.402 271.77 16.402 270.99C16.402 270.222 16.018 269.646 15.25 269.262C14.47 268.878 13.216 268.686 11.488 268.686C9.772 268.686 8.53 268.878 7.762 269.262C6.982 269.646 6.592 270.222 6.592 270.99ZM5.458 252.161H17.5V253.817H7.222L8.932 256.625L7.762 257.345L5.458 253.619V252.161ZM17.5 210.93L17.5 213.216L6.97 218.256C7.798 218.184 8.566 218.13 9.274 218.094C9.97 218.046 10.816 218.022 11.812 218.022H17.5V219.624H5.098V217.392L15.646 212.298C15.334 212.334 14.788 212.382 14.008 212.442C13.228 212.502 12.514 212.532 11.866 212.532H5.098L5.098 210.93H17.5ZM12.568 187.293H11.164L11.164 182.199H12.568L12.568 187.293ZM5.458 168.565H17.5V170.221H7.222L8.932 173.029L7.762 173.749L5.458 170.023V168.565ZM5.458 153.024H17.5V154.68H7.222L8.932 157.488L7.762 158.208L5.458 154.482L5.458 153.024ZM11.038 136.481C11.722 134.789 12.802 133.943 14.278 133.943C14.938 133.943 15.532 134.123 16.06 134.483C16.576 134.831 16.984 135.323 17.284 135.959C17.572 136.595 17.716 137.315 17.716 138.119C17.716 138.935 17.572 139.655 17.284 140.279C16.996 140.903 16.594 141.389 16.078 141.737C15.562 142.073 14.974 142.241 14.314 142.241C13.57 142.241 12.946 142.043 12.442 141.647C11.938 141.239 11.518 140.645 11.182 139.865C10.858 140.501 10.468 140.975 10.012 141.287C9.544 141.587 8.998 141.737 8.374 141.737C7.726 141.737 7.168 141.569 6.7 141.233C6.232 140.885 5.878 140.435 5.638 139.883C5.398 139.319 5.278 138.719 5.278 138.083C5.278 137.459 5.392 136.871 5.62 136.319C5.848 135.755 6.196 135.299 6.664 134.951C7.12 134.603 7.672 134.429 8.32 134.429C8.92 134.429 9.436 134.597 9.868 134.933C10.3 135.269 10.69 135.785 11.038 136.481ZM6.52 138.083C6.52 138.707 6.682 139.205 7.006 139.577C7.33 139.937 7.792 140.117 8.392 140.117C8.968 140.117 9.406 139.943 9.706 139.595C10.006 139.235 10.282 138.665 10.534 137.885L10.642 137.579C10.33 137.039 10 136.649 9.652 136.409C9.304 136.169 8.878 136.049 8.374 136.049C7.81 136.049 7.36 136.229 7.024 136.589C6.688 136.937 6.52 137.435 6.52 138.083ZM16.402 138.101C16.402 137.357 16.21 136.769 15.826 136.337C15.442 135.893 14.932 135.671 14.296 135.671C13.864 135.671 13.504 135.755 13.216 135.923C12.916 136.091 12.658 136.361 12.442 136.733C12.214 137.105 11.986 137.627 11.758 138.299L11.596 138.749C11.884 139.349 12.25 139.793 12.694 140.081C13.126 140.369 13.666 140.513 14.314 140.513C14.974 140.513 15.49 140.297 15.862 139.865C16.222 139.433 16.402 138.845 16.402 138.101ZM15.214 122.995C15.214 122.635 15.334 122.335 15.574 122.095C15.814 121.855 16.108 121.735 16.456 121.735C16.804 121.735 17.104 121.855 17.356 122.095C17.596 122.335 17.716 122.635 17.716 122.995C17.716 123.343 17.596 123.637 17.356 123.877C17.104 124.117 16.804 124.237 16.456 124.237C16.108 124.237 15.814 124.117 15.574 123.877C15.334 123.637 15.214 123.343 15.214 122.995ZM5.278 108.708C5.278 107.988 5.422 107.358 5.71 106.818C5.998 106.266 6.394 105.84 6.898 105.54C7.39 105.24 7.948 105.09 8.572 105.09C9.304 105.09 10.006 105.258 10.678 105.594C11.35 105.918 12.076 106.422 12.856 107.106C13.636 107.79 14.722 108.828 16.114 110.22V104.802L17.5 105L17.5 112.11H16.186C14.518 110.502 13.3 109.362 12.532 108.69C11.752 108.018 11.074 107.538 10.498 107.25C9.922 106.962 9.304 106.818 8.644 106.818C8.02 106.818 7.534 106.998 7.186 107.358C6.826 107.718 6.646 108.198 6.646 108.798C6.646 109.29 6.748 109.722 6.952 110.094C7.156 110.466 7.492 110.862 7.96 111.282L7.096 112.362C6.484 111.871 6.028 111.324 5.728 110.724C5.428 110.124 5.278 109.452 5.278 108.708ZM13.216 87.3566H14.53L14.53 88.9226H17.5V90.5246H14.53L14.53 95.6726H13.342L5.278 92.0546L5.854 90.6686L13.216 93.9266V90.5066L9.976 90.3626V88.9226H13.216L13.216 87.3566ZM13.216 69.7765H14.53L14.53 71.3425H17.5V72.9445H14.53L14.53 78.0925H13.342L5.278 74.4745L5.854 73.0885L13.216 76.3465V72.9265L9.976 72.7825V71.3425H13.216L13.216 69.7765ZM9.58 55.6884C9.58 55.0764 9.724 54.5184 10.012 54.0144C10.3 53.5104 10.732 53.1084 11.308 52.8084C11.884 52.5084 12.586 52.3584 13.414 52.3584C14.266 52.3584 15.022 52.5324 15.682 52.8804C16.33 53.2164 16.834 53.6784 17.194 54.2664C17.542 54.8424 17.716 55.4844 17.716 56.1924C17.716 57.5964 17.2 58.6224 16.168 59.2704C15.124 59.9184 13.684 60.2424 11.848 60.2424C10.54 60.2424 9.394 60.0624 8.41 59.7024C7.414 59.3304 6.646 58.8024 6.106 58.1184C5.554 57.4344 5.278 56.6244 5.278 55.6884C5.278 54.7764 5.524 53.9484 6.016 53.2044L7.114 53.8524C6.766 54.4164 6.592 55.0344 6.592 55.7064C6.592 56.5704 7.006 57.2544 7.834 57.7584C8.662 58.2624 9.772 58.5384 11.164 58.5864C10.108 57.8424 9.58 56.8764 9.58 55.6884ZM16.402 56.1924C16.402 55.4964 16.138 54.9624 15.61 54.5904C15.082 54.2184 14.368 54.0324 13.468 54.0324C11.752 54.0324 10.894 54.6804 10.894 55.9764C10.894 56.5044 11.044 56.9904 11.344 57.4344C11.632 57.8784 12.034 58.2564 12.55 58.5684C13.87 58.5324 14.842 58.3284 15.466 57.9564C16.09 57.5724 16.402 56.9844 16.402 56.1924ZM5.098 8.45309L17.5 10.9731V13.1691L7.114 15.4551L17.5 17.7591V19.9011L5.098 22.4211V20.7471L16.006 18.7491L5.098 16.3551V14.5371L16.006 12.0891L5.098 10.0191V8.45309Z" fill="white"/>
<path fill-rule="evenodd" clip-rule="evenodd" d="M11 43C12.3807 43 13.5 41.8807 13.5 40.5C13.5 39.1193 12.3807 38 11 38C9.61929 38 8.5 39.1193 8.5 40.5C8.5 41.8807 9.61929 43 11 43Z" stroke="white"/>
<path fill-rule="evenodd" clip-rule="evenodd" d="M11 242C12.3807 242 13.5 240.881 13.5 239.5C13.5 238.119 12.3807 237 11 237C9.61929 237 8.5 238.119 8.5 239.5C8.5 240.881 9.61929 242 11 242Z" stroke="white"/>
</g>
</svg>
