<?xml version="1.0" encoding="utf-8"?><svg viewBox="0 0 61 52" xmlns="http://www.w3.org/2000/svg" xmlns:xlink="http://www.w3.org/1999/xlink"><style>:root>svg{display:none}:root>svg:target{display:block}</style><svg viewBox="0 0 25 52" id="shop" xmlns="http://www.w3.org/2000/svg"><g filter="url(#aa)"><path fill-rule="evenodd" clip-rule="evenodd" d="M5 20.583C5 7.503 10.422.445 12.639.445c2.217 0 7.639 7.057 7.639 20.138 0 13.217-4.743 22.177-4.945 22.552l-.196.365h-4.996l-.197-.365C9.744 42.76 5 33.8 5 20.583zm6.945-18.295zm0 0v21.768h1.389V2.288c1.777 1.587 5.555 7.36 5.555 18.295a53.6 53.6 0 01-.93 9.888c-.804-1.145-2.282-2.702-4.974-4.24-6.547-3.741-6.467-8.879-6.462-9.096h-.002C7.204 8.42 10.365 3.7 11.945 2.288zm-5.42 21.936a51.331 51.331 0 01-.113-2.526c.993 1.846 2.755 3.952 5.883 5.74 4.446 2.54 5.207 5.054 5.226 5.117a52.622 52.622 0 01-1.087 4.023c-.585-1.036-1.616-2.31-3.437-3.395-5.485-3.266-6.35-8.004-6.472-8.959zm6.809 17.887h.96a38.37 38.37 0 001.47-3.542c-.136-.578-.785-2.59-3.48-4.194-2.449-1.46-4.06-3.198-5.124-4.826 1.137 6.662 3.2 11.274 3.825 12.562h.96v-4.86h1.389v4.86z"/><path d="M12.639.445V.32v.125zm2.694 42.69l.11.06-.11-.06zm-.196.365v.125h.075l.035-.066-.11-.06zm-4.996 0l-.11.06.035.065h.075V43.5zm-.197-.365l-.11.06.11-.06zm2-40.847l-.04-.118-.084.029v.09h.125zm0 0l.084.093-.123-.211.04.118zm0 21.768h-.124v.125h.125v-.125zm1.39 0v.125h.125v-.125h-.125zm0-21.768l.083-.093-.208-.186v.28h.125zm4.625 28.183l-.103.071.17.243.055-.291-.122-.023zm-4.974-4.24l-.062.108.062-.108zm-6.462-9.096l.125.003.003-.128h-.128v.125zm-.002 0l-.124-.01-.01.135h.134v-.125zm-.109 4.563l.11-.059-.235.062.125-.003zm.113 2.526l-.125.01v.006l.125-.016zm5.77 3.214l-.062.108.062-.108zm5.226 5.117l-.12.037.12-.037zm0 0l.122.029.007-.033-.01-.032-.119.037zm-1.087 4.023l-.108.062.141.25.087-.274-.12-.038zm-3.437-3.395l.064-.108-.064.108zm1.297 8.928v.125h.215l-.107-.187-.108.062zm-.96 0h-.125v.125h.125v-.125zm.96 0l-.113-.054-.029.059.033.057.108-.062zm1.47-3.542l.117.043.013-.035-.008-.036-.122.028zm-3.48-4.194l-.063.107.064-.107zM7.16 29.549l.104-.069-.227.09.123-.021zm3.825 12.562l-.113.055.034.07h.079v-.125zm.96 0v.125h.125v-.125h-.125zm0-4.86v-.126h-.125v.125h.125zm1.389 0h.125v-.126h-.125v.125zM12.639.32c-.309 0-.659.122-1.03.347-.372.226-.774.56-1.19.999-.83.878-1.723 2.18-2.544 3.889-1.641 3.418-3 8.47-3 15.028h.25c0-6.523 1.352-11.539 2.976-14.92.812-1.691 1.69-2.97 2.5-3.825.404-.427.79-.746 1.138-.958.35-.212.654-.31.9-.31V.32zm7.764 20.263c0-6.557-1.36-11.61-3-15.028-.821-1.709-1.713-3.011-2.544-3.889-.416-.439-.818-.773-1.19-1-.372-.224-.722-.346-1.03-.346v.25c.246 0 .55.098.9.31.348.212.734.53 1.138.958.81.854 1.688 2.134 2.5 3.825 1.624 3.38 2.976 8.397 2.976 14.92h.25zm-4.96 22.611c.207-.384 4.96-9.365 4.96-22.61h-.25c0 13.188-4.734 22.127-4.93 22.492l.22.118zm-.196.365l.196-.364-.22-.119-.196.365.22.118zm-5.106.066h4.996v-.25h-4.996v.25zm-.307-.43l.197.364.22-.118-.196-.365-.22.118zM4.875 20.582c0 13.246 4.753 22.227 4.96 22.611l.22-.118c-.197-.365-4.93-9.304-4.93-22.493h-.25zM11.82 2.288h.25-.25zm.085-.118l.08.237-.08-.237zm.123.212l-.167-.187.167.187zm.042 21.674V2.288h-.25v21.768h.25zm1.264-.125h-1.39v.25h1.39v-.25zm-.125-21.643v21.768h.25V2.288h-.25zm5.805 18.295c0-10.96-3.786-16.772-5.597-18.388l-.167.187c1.745 1.557 5.514 7.292 5.514 18.201h.25zm-.933 9.91c.549-2.914.933-6.252.933-9.91h-.25c0 3.641-.383 6.963-.928 9.864l.245.047zm-5.158-4.153c2.677 1.53 4.14 3.074 4.933 4.202l.205-.143c-.815-1.16-2.307-2.73-5.014-4.277l-.124.218zm-6.525-9.208c-.006.244-.076 5.435 6.525 9.207l.124-.217c-6.493-3.71-6.404-8.793-6.4-8.983l-.249-.007zm.123.128h.002v-.25h-.002v.25zm5.34-15.065c-1.61 1.439-4.78 6.19-5.464 14.93l.249.02c.68-8.693 3.832-13.378 5.382-14.763l-.167-.187zM6.287 21.701c.02.861.054 1.707.113 2.532l.25-.018a51.226 51.226 0 01-.113-2.52l-.25.006zm6.07 5.628c-3.107-1.776-4.853-3.865-5.835-5.69l-.22.119c1.004 1.866 2.783 3.989 5.931 5.788l.124-.217zm5.284 5.19c-.028-.093-.81-2.632-5.284-5.19l-.124.217c4.417 2.525 5.158 5.011 5.168 5.046l.24-.073zm0 0l-.24.073.24-.072zm-1.087 4.097a52.79 52.79 0 001.089-4.032l-.244-.056a52.597 52.597 0 01-1.084 4.013l.239.075zm-3.621-3.326c1.8 1.073 2.817 2.33 3.393 3.35l.217-.123c-.595-1.054-1.64-2.345-3.482-3.442l-.128.215zM6.4 24.24c.124.975 1.002 5.757 6.532 9.05l.128-.215c-5.439-3.238-6.293-7.932-6.412-8.866l-.248.031zm7.893 17.746h-.96v.25h.96v-.25zm-.109.187l.217-.124-.217.124zm1.461-3.646a37.71 37.71 0 01-1.465 3.53l.225.109c.277-.573.838-1.796 1.475-3.554l-.235-.085zm-3.425-4.045c2.658 1.583 3.291 3.563 3.421 4.116l.244-.057c-.142-.603-.807-2.648-3.537-4.273l-.128.214zm-5.166-4.865c1.074 1.643 2.699 3.395 5.166 4.865l.128-.214c-2.432-1.45-4.03-3.174-5.085-4.788l-.209.137zm4.042 12.44c-.621-1.28-2.68-5.882-3.814-12.53l-.246.043c1.14 6.676 3.206 11.3 3.835 12.596l.225-.11zm.848-.07h-.96v.25h.96v-.25zm-.125-4.737v4.861h.25v-4.86h-.25zm1.514-.125h-1.39v.25h1.39v-.25zm.125 4.986v-4.86h-.25v4.86h.25z"/></g><defs><filter id="aa" x=".875" y=".32" width="23.528" height="51.305" filterUnits="userSpaceOnUse" color-interpolation-filters="sRGB"><feFlood flood-opacity="0" result="BackgroundImageFix"/><feColorMatrix in="SourceAlpha" values="0 0 0 0 0 0 0 0 0 0 0 0 0 0 0 0 0 0 127 0" result="hardAlpha"/><feOffset dy="4"/><feGaussianBlur stdDeviation="2"/><feColorMatrix values="0 0 0 0 0 0 0 0 0 0 0 0 0 0 0 0 0 0 0.25 0"/><feBlend in2="BackgroundImageFix" result="effect1_dropShadow_0_2964"/><feBlend in="SourceGraphic" in2="effect1_dropShadow_0_2964" result="shape"/></filter></defs></svg><svg viewBox="0 0 47 48" id="sleep" xmlns="http://www.w3.org/2000/svg"><g filter="url(#ba)"><path d="M42.037 32.188H33.75a.484.484 0 000 .97h8.287a.484.484 0 000-.97zm0 6.152h-9.291a.484.484 0 000 .97h9.291a.484.484 0 000-.97zM4.481 35.692h7.493a.484.484 0 000-.97H4.481a.484.484 0 00-.481.484c0 .27.216.486.481.486z"/><path fill-rule="evenodd" clip-rule="evenodd" d="M7.745.535A.478.478 0 018.3.628a.49.49 0 01.088.56 4.263 4.263 0 00-.45 1.912c0 2.377 1.93 4.313 4.3 4.313a4.25 4.25 0 001.907-.453.478.478 0 01.555.093.488.488 0 01.09.559 5.231 5.231 0 01-4.711 2.94c-2.902 0-5.263-2.372-5.263-5.285A5.258 5.258 0 017.745.535zm5.383 7.772a5.156 5.156 0 01-.89.076c-2.902 0-5.262-2.37-5.26-5.284 0-.303.024-.6.075-.894a4.286 4.286 0 00-1.274 3.061c0 2.38 1.93 4.315 4.3 4.315a4.256 4.256 0 003.049-1.274zM42.039 24.41h-.002a.484.484 0 00-.481.483l-.012 2.592L23.677.924c-.179-.268-.617-.268-.797 0L5.025 27.466l.012-2.75a.483.483 0 00-.48-.488h-.002a.484.484 0 00-.481.483l-.017 4.342a.486.486 0 00.481.487.485.485 0 00.399-.212l2.81-4.177v3.906c0 .267.216.485.481.485h10.724a4.368 4.368 0 004.168 3.094l.019-.001.019-.001h.01l.009.002c.006 0 .011 0 .017-.002l.01-.001.029-.003a4.366 4.366 0 004.053-3.088H38.33a.484.484 0 00.482-.485V25.15l2.81 4.177a.477.477 0 00.538.191.485.485 0 00.34-.462l.019-4.16a.482.482 0 00-.48-.487zm-18.806 7.25h-.006a.946.946 0 01-.07.003 1.535 1.535 0 01-1.512-1.531c0-.552.805-1.822 1.531-2.78.726.958 1.531 2.228 1.531 2.78 0 .824-.656 1.497-1.474 1.528zm2.435-1.53c0 .144-.018.28-.041.417.551-.607.89-1.409.886-2.29 0-1.454-2.19-4.548-3.397-6.088-1.205 1.54-3.397 4.636-3.397 6.088 0 .955.397 1.82 1.031 2.44a2.568 2.568 0 01-.07-.567c0-1.229 1.77-3.437 2.124-3.868a.496.496 0 01.741 0c.355.43 2.123 2.64 2.123 3.868zm-2.177-9.041a.496.496 0 00-.742 0c-.408.495-3.989 4.908-3.989 7.168 0 .076.005.151.01.226l.005.089h-4.848v-3.2c.628-.512 2.71-2.287 4.818-4.92 1.712-2.136 3.666-5.156 4.552-8.6.886 3.445 2.84 6.463 4.551 8.6 2.109 2.633 4.19 4.408 4.82 4.92v3.2h-5.205c.007-.104.015-.209.015-.315.002-2.26-3.58-6.673-3.987-7.168zm10.137 7.483h4.22l.003-4.852L23.28 2.061 8.71 23.721v4.85h4.252v-3.434c0-.152.07-.294.188-.385.117-.092 9.663-7.635 9.663-16.562 0-.267.217-.485.482-.485s.481.218.481.485c0 8.924 9.54 16.464 9.663 16.561a.49.49 0 01.189.386v3.435z"/><path fill-rule="evenodd" clip-rule="evenodd" d="M30.596 34.433a.488.488 0 01-.304.622l-1.781.593 1.711.487a.486.486 0 01.331.605l-.615 2.09a.48.48 0 01-.592.327l-6.128-1.746-5.624 1.875a.474.474 0 01-.602-.301l-.709-2.061a.486.486 0 01.303-.62l1.486-.495-1.785-.508a.485.485 0 01-.331-.605l.615-2.089a.48.48 0 01.592-.33l6.201 1.767 5.917-1.973a.48.48 0 01.606.301l.709 2.061zm-13.237-1.092l-.342 1.158 2.686.766 2.03-.677-4.374-1.247zm12.131 3.594l-.342 1.159-4.3-1.227 2.032-.677 2.61.745zm-12.14.137l.393 1.143 11.783-3.928-.393-1.143-11.783 3.928z"/></g><defs><filter id="ba" x="0" y=".484" width="46.519" height="46.827" filterUnits="userSpaceOnUse" color-interpolation-filters="sRGB"><feFlood flood-opacity="0" result="BackgroundImageFix"/><feColorMatrix in="SourceAlpha" values="0 0 0 0 0 0 0 0 0 0 0 0 0 0 0 0 0 0 127 0" result="hardAlpha"/><feOffset dy="4"/><feGaussianBlur stdDeviation="2"/><feColorMatrix values="0 0 0 0 0 0 0 0 0 0 0 0 0 0 0 0 0 0 0.25 0"/><feBlend in2="BackgroundImageFix" result="effect1_dropShadow_0_2932"/><feBlend in="SourceGraphic" in2="effect1_dropShadow_0_2932" result="shape"/></filter></defs></svg><svg viewBox="0 0 61 48" id="surf" xmlns="http://www.w3.org/2000/svg"><path fill-rule="evenodd" clip-rule="evenodd" d="M59.598 43.861a.511.511 0 01-.036.083.172.172 0 01-.056.073.95.95 0 01-.049.072c-.019.023-.04.05-.061.073a1.282 1.282 0 01-.17.144 2.174 2.174 0 01-.035.022l-.02.011-.015.008a.713.713 0 01-.157.07l-.018.007a.14.14 0 01-.02.006c-.005.002-.01.002-.013.002h-.013a.893.893 0 01-.226.032c-.106 0-.143.016-.143.016-.044.05-.122.304-.172.464l-.005.016c-.183.593-.567 1.827-2.116 1.827-1.326 0-1.984-.888-2.466-1.538l-.004-.005c-.451-.614-.623-.78-.961-.78-.34 0-.508.166-.962.778l-.004.005c-.481.65-1.14 1.538-2.468 1.538-1.326 0-1.984-.889-2.466-1.538l-.003-.005c-.452-.612-.624-.778-.962-.778-.336 0-.508.166-.962.78-.48.65-1.14 1.543-2.47 1.543-1.327 0-1.986-.888-2.468-1.538l-.003-.005c-.452-.612-.623-.778-.962-.778-.339 0-.508.166-.962.778-.48.65-1.138 1.543-2.47 1.543-1.325 0-1.983-.888-2.465-1.538l-.004-.005c-.451-.612-.623-.778-.961-.778-.337 0-.508.166-.962.78-.48.651-1.14 1.543-2.47 1.543-1.325 0-1.984-.888-2.466-1.538l-.003-.004c-.451-.612-.623-.779-.962-.779-.336 0-.508.167-.962.781-.48.65-1.14 1.543-2.47 1.543a1.4 1.4 0 01-1.074-.487c-.656-.754-.524-2.04-.254-4.077l.005-.035c.096-.737.244-1.86.195-2.407-1.757.346-4.25 3.9-5.543 6.484a.937.937 0 01-.84.522c-.018 0-.037 0-.056-.002a.937.937 0 01-.828-.622c-.216-.603-2.065-5.974-.143-8.945.72-1.11 1.886-1.75 3.377-1.847 1.296-.085 1.888-.436 2.001-.714.075-.185-.044-.5-.308-.802-.7-.805-2.267-1.45-4.05-.961-2.471.674-5.242 4.018-6.175 7.454-.327 1.208-.68 3.444.656 4.828a.957.957 0 01-.019 1.343.934.934 0 01-1.331-.02c-1.475-1.525-1.872-3.889-1.122-6.651.971-3.58 4.043-7.844 7.5-8.786 2.575-.703 4.844.266 5.954 1.54.77.88 1 1.894.635 2.782-.317.771-1.201 1.725-3.619 1.884-.9.06-1.529.384-1.921.99-.793 1.224-.61 3.396-.25 5.128 1.412-2.285 3.888-5.605 6.451-5.525.414.015.788.195 1.051.51.264.314.393.72.44 1.223 1.731-1.156 4.257-2.3 9.243-2.808-5.405-22.095 4.755-34.533 5.216-35.081a.118.118 0 01.012-.01.96.96 0 01.101-.097.388.388 0 01.059-.05c.029-.02.057-.035.088-.052l.02-.012a.475.475 0 01.059-.033.92.92 0 01.136-.045l.033-.009a.9.9 0 01.214-.027l.139.005c.277 0 .538.121.717.335.46.545 10.57 12.92 5.263 34.908 13.88.82 15.578 6.41 15.643 6.654.003.01.003.022.005.031l.014.093c.005.033.01.066.01.1a.08.08 0 000 .006v.008a.098.098 0 01.002.014v.018l-.004.03v.01c-.003.032-.005.066-.012.098l-.004.022a5.511 5.511 0 01-.015.064l-.005.017-.003.011a.563.563 0 01-.02.062zm-20.79-4.314h2.432c5.355-17.673.317-29.587-2.432-34.317v34.317zM36.927 5.479v34.068h-2.293c-5.252-17.33-.478-29.168 2.293-34.068zM56.599 44.42l.005-.015c.11-.356.298-.94.761-1.35-1.041-1.33-4.327-4.059-13.863-4.555-.207.752-.43 1.514-.675 2.288a.943.943 0 01-.896.662H33.94a.943.943 0 01-.896-.662 70.608 70.608 0 01-.628-2.131c-6.046.574-8.21 2.105-9.863 3.396l-.022.166c-.01.087-.022.175-.035.268-.091.693-.232 1.76-.204 2.33.171-.102.345-.31.628-.695l.003-.004c.482-.65 1.14-1.538 2.468-1.538 1.326 0 1.985.888 2.466 1.538l.004.004c.451.612.623.779.962.779.338 0 .508-.167.962-.779l.003-.004c.482-.65 1.14-1.538 2.468-1.538 1.326 0 1.984.888 2.466 1.538l.003.004c.454.612.626.779.962.779.339 0 .508-.167.962-.779.48-.65 1.139-1.542 2.47-1.542 1.325 0 1.984.888 2.465 1.538l.004.004c.454.615.626.781.964.781.339 0 .508-.166.962-.778l.003-.005c.482-.65 1.14-1.538 2.469-1.538 1.325 0 1.984.888 2.466 1.538l.003.005c.452.612.623.778.962.778.338 0 .51-.166.964-.78.48-.651 1.14-1.543 2.47-1.543 1.328 0 1.986.888 2.468 1.538l.003.004c.454.612.626.779.962.779.106 0 .144-.017.144-.017.043-.05.121-.304.171-.464z"/><path d="M59.562 43.944l-.44-.238.758.624-.318-.386zm.036-.083l-.462-.19-.008.016-.005.017.475.157zm-.035.083l.448.222-.766-.608.318.386zm-.057.073l-.279-.414-.087.058-.057.09.423.266zm-.033.048l.407.292-.407-.292zm-.016.024l.392.31.01-.012.009-.013-.411-.285zm-.061.073l.355.352.01-.01.008-.009-.373-.333zm-.059.057l-.334-.372-.01.01-.011.01.355.352zm-.075.064l.279.415.008-.006.009-.006-.296-.403zm-.035.023l-.27-.421.27.421zm-.036.022l.225.447.018-.009.016-.01-.259-.428zm-.02.011l-.242-.438.241.438zm-.015.008l-.244-.436.244.436zm-.05.026l-.21-.453-.008.003-.007.004.226.446zm-.029.013l-.186-.464.186.464zm-.033.013l-.171-.47.171.47zm-.027.01l.177.468.004-.002-.18-.466zm-.018.008l.2.458-.2-.458zm-.018.007l.18.467-.18-.467zm-.02.006l-.11-.488-.013.004.123.484zm-.014.002v-.5h-.002l.002.5zm-.012 0l-.122-.484h-.004l.126.485zm-.37.048l-.201-.457-.104.046-.074.086.38.325zm-.17.464l.477.149-.478-.149zm-.006.016l-.477-.149.477.149zm-4.582.289l-.402.297.402-.297zm-.004-.005l-.402.296v.002l.402-.298zm-1.923-.002l.401.298-.401-.298zm-.004.005l-.401-.298.401.297zm-4.934 0l.402-.298-.402.297zm-.003-.005l-.403.297h.001l.402-.297zm-1.924.002l-.402-.297.402.297zm-4.938.005l.402-.298-.402.298zm-.003-.005l-.402.297v.001l.402-.298zm-1.924 0l-.402-.297.402.297zm-4.935.005l.401-.298-.401.298zm-.004-.005l-.402.297v.001l.403-.298zm-1.923.003l-.402-.297.402.297zm-4.936.004l.402-.297-.402.297zm-.003-.004l-.402.297.402-.297zm-1.924.002l-.402-.297.402.297zm-3.544 1.056l.379-.326-.002-.002-.377.328zm-.254-4.077l.496.066-.496-.066zm.005-.035l-.496-.065.496.065zm.195-2.407l.498-.044-.05-.554-.545.107.097.491zm-5.543 6.484l-.447-.224v.002l.447.222zm-.896.52l.063-.496-.017-.003h-.017l-.029.499zm-.828-.622l.471-.168v-.001l-.47.169zm-.143-8.945l-.42-.272.42.272zm3.377-1.847l.032.5-.032-.5zm2.001-.714l.463.188-.463-.188zm-.308-.802l-.377.328.377-.328zm-4.05-.961l.132.482-.132-.482zm-6.175 7.454l-.483-.13.483.13zm.656 4.828l.36-.347-.36.347zm-.019 1.343l.35.357-.35-.357zm-1.331-.02l.36-.346-.36.347zm-1.122-6.651l.483.13-.483-.13zm7.5-8.786l.131.482-.131-.482zm5.954 1.54l-.377.329.377-.329zm.635 2.782l.463.19-.463-.19zm-3.619 1.884l-.033-.499.033.5zm-1.921.99l-.42-.273v.001l.42.272zm-.25 5.128l-.49.102.256 1.23.66-1.069-.426-.263zm6.451-5.525l.017-.5h-.001l-.016.5zm1.051.51l-.383.32v.002l.383-.321zm.44 1.223l-.498.046.078.835.698-.465-.278-.416zm9.243-2.808l.05.498.572-.059-.136-.558-.486.12zM37.146 1.71l-.355-.352-.015.015-.013.015.383.322zm.012-.01l.312.39-.312-.39zm.014-.014l-.37-.337-.016.019-.016.02.402.298zm.087-.083l.325.38.015-.013.015-.015-.355-.352zm.059-.05l-.28-.414.28.414zm.088-.052l.245.435-.245-.435zm.02-.012l.245.436.011-.006.01-.007-.266-.423zm.059-.033l-.196-.46L37.28 1l.205.456zm.136-.045L37.55.916l-.026.004-.025.006.122.485zm.033-.009l.16.474.004-.002-.164-.472zm0 0l-.16-.474-.004.002.164.472zm.016-.005l-.109-.488-.015.003-.014.004.138.48zm.198-.022l.017-.5h-.018v.5zm.139.005l-.017.5h.017v-.5zm.717.335l-.383.32.001.002.382-.322zm5.263 34.908l-.486-.117-.14.58.597.036.03-.5zm15.643 6.654l.486-.12-.003-.01-.483.13zm.005.031l.495-.075-.004-.023-.005-.022-.486.12zm.014.093l.495-.07v-.006l-.495.076zm.01.106l-.498.046.001.01.497-.056zm0 .008l-.496.056v.005l.497-.061zm.002.007l.498-.043-.498.043zm0 .025l-.5-.036.5.036zm-.004.03l-.496-.061.496.062zm0 .007l-.497-.063-.001.014-.001.013.498.035zm0 .003l-.5-.035.5.035zm-.012.098l-.49-.103-.002.01-.002.012.494.081zm-.004.022l.49.099-.49-.099zm-.004.018l-.488-.11v.001l.488.11zm-.011.046l.48.141.003-.01.002-.01-.485-.121zm-.005.017l-.48-.142-.001.005.481.136zm-.003.011l-.481-.136.48.136zM41.24 39.547v.5h.37l.108-.355-.478-.145zm-2.432 0h-.5v.5h.5v-.5zm0-34.317l.432-.252-.932-1.604V5.23h.5zm-1.881 34.317v.5h.5v-.5h-.5zm0-34.068h.5v-1.9l-.935 1.654.435.246zm-2.293 34.068l-.479.145.108.355h.37v-.5zm21.97 4.858l.477.148.232-.746-.774.102.065.496zm-.005.015l.478.148-.478-.148zm.004-.015l-.477-.149-.232.746.774-.102-.065-.495zm.762-1.35l.332.373.352-.312-.29-.37-.394.308zM43.502 38.5l.026-.5-.402-.02-.106.387.482.133zm-.675 2.288l.477.15-.477-.15zm-9.783 0l-.477.15.477-.15zm-.628-2.131l.482-.135-.113-.403-.416.04.047.498zm-9.863 3.396l-.308-.394-.161.126-.027.202.496.066zm-.022.166l.497.063-.497-.063zm-.035.268l-.495-.069v.003l.495.066zm-.204 2.33l-.5.025.041.83.714-.425-.255-.43zm.628-.695l-.402-.297-.001.001.403.296zm.003-.004l-.402-.298.402.298zm4.934 0l-.401.297.401-.297zm.004.004l.402-.297-.402.297zm1.924 0l.401.298-.401-.298zm.003-.004l-.402-.298.402.298zm4.934 0l-.402.297.402-.297zm.003.004l.402-.298-.402.298zm1.924 0l.402.298v-.001l-.402-.297zm4.935-.004l.402-.298-.401.298zm.004.004l.402-.297-.402.297zm1.926.003l-.402-.298.402.298zm.003-.005l-.401-.298.401.298zm4.935 0l-.402.298.402-.298zm.003.005l.402-.297v-.001l-.402.298zm1.926-.003l.402.297-.402-.297zm4.938-.004l-.402.297.402-.297zm.003.004l.402-.298-.402.298zm1.105.762l.202.457.104-.046.074-.086-.38-.325zm3.575-.702a1.02 1.02 0 00.07-.164l-.95-.314a.05.05 0 01-.001.005l.002-.003.88.476zm-.757-.624l.635.772-.635-.772zm.54.874c.148-.1.21-.236.226-.266l-.896-.444c-.014.027.02-.058.112-.12l.558.83zm.095-.075c.01-.014.03-.041.05-.073l-.847-.533-.004.006a.95.95 0 01-.012.017l.813.583zm-.012.017l.012-.017-.813-.583a2.112 2.112 0 00-.02.03l.82.57zm-.099.121c.031-.035.06-.07.08-.096l-.784-.621a1.3 1.3 0 01-.042.051l.746.666zm-.098.096c.034-.03.062-.06.08-.077l-.71-.704-.038.037.668.744zm-.113.095c.04-.03.088-.068.134-.115l-.71-.704a.134.134 0 01-.016.013l.592.806zm-.062.042l.045-.03-.558-.83-.026.017.539.843zm-.046.028l.046-.029-.539-.842a1.504 1.504 0 01-.025.016l.518.855zm-.039.022l.005-.003-.45-.893a1.09 1.09 0 00-.037.02l.482.876zm-.01.006l.01-.007-.482-.876a2.216 2.216 0 00-.017.01l.488.873zm-.083.043c.037-.018.069-.036.082-.043l-.488-.873a2.299 2.299 0 01-.016.009c-.002.001-.002.001 0 0l.422.907zm-.054.023a.877.877 0 00.068-.03l-.45-.893.01-.005.371.928zm-.048.018l.048-.018-.373-.928a.62.62 0 01-.018.007l.343.94zm-.018.007l.018-.007-.343-.939a1.541 1.541 0 00-.037.014l.362.932zm.002 0l.003-.002-.009.004-.354-.936-.042.018.402.915zm-.039.016l.039-.016-.402-.916-.003.001.007-.003.359.934zm-.09.027a.65.65 0 00.09-.027l-.359-.934a.341.341 0 01.05-.014l.218.975zm-.123.014s.063.001.135-.017l-.245-.97c.063-.015.117-.014.11-.014v1zm-.002 0h.002v-1h-.002v1zm.111-.014c-.057.014-.104.014-.109.014l-.003-1c-.013 0-.067 0-.132.016l.244.97zm-.348.046c.129 0 .247-.02.352-.047l-.252-.968a.397.397 0 01-.1.015v1zm-.143-.484l.201.458h-.001l-.002.001-.004.002-.007.003-.013.005a.358.358 0 01-.052.015c-.011.002-.006 0 .021 0v-1a1.114 1.114 0 00-.28.035.6.6 0 00-.05.017l-.008.004-.004.001-.001.001h-.001l.2.458zm.306.612a8.186 8.186 0 01.115-.344l.003-.006-.01.018a.4.4 0 01-.034.045l-.76-.65c-.068.079-.106.172-.118.2a4.672 4.672 0 00-.151.441l.955.296zm-.005.016l.005-.015-.955-.297-.005.015.955.297zm-2.594 2.179c.932 0 1.555-.382 1.958-.875.381-.467.546-1.014.636-1.305l-.955-.295c-.094.302-.213.67-.456.968-.222.272-.566.507-1.183.507v1zm-2.868-1.74c.474.639 1.268 1.74 2.868 1.74v-1c-1.052 0-1.575-.675-2.065-1.336l-.803.596zm-.003-.005l.003.005.804-.596-.004-.004-.803.595zm-.56-.578c.042 0 .057.005.062.006a.19.19 0 01.056.037c.087.073.209.218.44.533l.806-.592c-.22-.299-.41-.545-.605-.708a1.122 1.122 0 00-.76-.276v1zm-.56.576c.233-.315.354-.46.442-.533a.192.192 0 01.056-.037.183.183 0 01.062-.006v-1c-.283 0-.524.08-.759.275-.195.163-.385.408-.605.705l.803.596zm-.004.004l.003-.004-.803-.596-.003.005.803.595zm-2.87 1.74c1.602 0 2.396-1.1 2.87-1.74l-.803-.595c-.49.66-1.013 1.336-2.067 1.336v1zm-2.868-1.74c.474.64 1.268 1.74 2.868 1.74v-1c-1.051 0-1.575-.675-2.064-1.335l-.804.595zm-.003-.004l.004.004.803-.595-.004-.005-.803.596zm-.56-.576c.042 0 .057.005.062.006a.195.195 0 01.056.037c.088.073.21.217.441.532l.805-.594c-.22-.298-.41-.543-.606-.706a1.123 1.123 0 00-.758-.275v1zm-.56.577c.233-.315.355-.46.444-.534a.197.197 0 01.056-.037.166.166 0 01.06-.006v-1c-.282 0-.523.08-.758.276-.195.163-.386.408-.606.707l.804.594zm-2.871 1.746c1.603 0 2.399-1.106 2.871-1.746l-.805-.593c-.487.66-1.013 1.339-2.066 1.339v1zm-2.87-1.74c.474.64 1.267 1.74 2.87 1.74v-1c-1.054 0-1.578-.676-2.067-1.336l-.803.596zm-.004-.005l.004.005.803-.596-.004-.004-.803.595zm-.56-.576c.042 0 .058.005.062.007a.195.195 0 01.056.037c.088.073.21.217.442.531l.804-.593c-.22-.298-.41-.543-.605-.707a1.123 1.123 0 00-.759-.275v1zm-.56.576c.233-.315.355-.46.443-.533a.192.192 0 01.055-.037.185.185 0 01.062-.006v-1c-.282 0-.524.08-.758.276-.195.163-.385.407-.606.705l.804.595zm-2.871 1.745c1.606 0 2.4-1.106 2.872-1.746l-.805-.593c-.488.66-1.011 1.339-2.067 1.339v1zm-2.868-1.74c.474.639 1.268 1.74 2.868 1.74v-1c-1.051 0-1.575-.675-2.064-1.336l-.804.596zm-.003-.005l.003.005.803-.596-.003-.005-.803.596zm-.56-.576c.042 0 .057.005.062.007a.195.195 0 01.056.037c.088.073.21.217.441.531l.805-.593c-.22-.298-.41-.543-.606-.707a1.123 1.123 0 00-.758-.275v1zm-.56.578c.233-.316.355-.46.443-.534a.192.192 0 01.056-.038.177.177 0 01.06-.006v-1c-.281 0-.523.08-.757.276-.195.163-.386.409-.607.708l.805.594zm-2.872 1.745c1.604 0 2.4-1.105 2.872-1.745l-.805-.594c-.487.66-1.013 1.34-2.067 1.34v1zm-2.867-1.74c.474.64 1.267 1.74 2.867 1.74v-1c-1.05 0-1.574-.675-2.064-1.335l-.803.595zm-.004-.004l.004.004.803-.596-.003-.004-.804.596zm-.56-.577c.043 0 .058.005.062.007a.189.189 0 01.057.037c.087.073.209.217.44.532l.805-.594c-.22-.298-.41-.543-.605-.706a1.123 1.123 0 00-.759-.276v1zm-.56.578c.233-.315.356-.46.444-.534a.167.167 0 01.056-.037.179.179 0 01.06-.007v-1c-.282 0-.523.08-.757.277-.196.163-.386.408-.607.707l.805.594zm-2.871 1.746c1.603 0 2.4-1.106 2.872-1.746l-.805-.594c-.487.66-1.013 1.34-2.067 1.34v1zm-1.453-.66a1.9 1.9 0 001.453.66v-1a.9.9 0 01-.696-.313l-.757.653zm-.372-4.47c-.134 1.01-.24 1.88-.224 2.597.016.72.158 1.37.597 1.874l.755-.656c-.217-.25-.338-.62-.352-1.241-.015-.625.08-1.415.216-2.442l-.992-.132zm.005-.034l-.005.035.992.13.005-.035-.992-.13zm.193-2.298c.02.222 0 .597-.043 1.04-.042.431-.102.888-.15 1.258l.992.13c.048-.367.11-.84.154-1.292.042-.44.072-.9.043-1.224l-.996.088zm-4.598 6.664c.633-1.265 1.561-2.77 2.541-3.993.49-.612.984-1.143 1.452-1.537.477-.402.884-.625 1.2-.687l-.194-.982c-.562.111-1.125.462-1.65.904-.535.45-1.074 1.035-1.588 1.677a24.703 24.703 0 00-2.655 4.17l.894.448zm-1.286.798c.541 0 1.042-.306 1.287-.8l-.896-.444a.437.437 0 01-.391.244v1zm-.12-.006c.056.007.106.006.12.006v-1h-.013l.019.002-.126.992zm-1.236-.95c.195.544.695.92 1.27.953l.058-.999a.437.437 0 01-.386-.29l-.942.336zm-.092-9.385c-1.064 1.646-1.057 3.889-.805 5.701.255 1.839.784 3.369.898 3.685l.941-.338a18.702 18.702 0 01-.849-3.485c-.246-1.766-.203-3.694.655-5.02l-.84-.543zm3.764-2.074c-1.625.107-2.946.812-3.764 2.074l.84.544c.621-.96 1.633-1.531 2.99-1.62l-.066-.998zm1.571-.403c.02-.051.002.038-.284.155-.26.107-.675.208-1.287.248l.066.998c.684-.045 1.212-.161 1.601-.321.363-.15.697-.375.83-.704l-.926-.376zm-.221-.285c.102.117.162.221.19.294a.244.244 0 01.017.058c0 .002-.003-.025.014-.067l.926.376c.107-.262.05-.532-.023-.724a2.029 2.029 0 00-.371-.595l-.753.658zm-3.541-.808c1.608-.441 2.973.156 3.54.807l.754-.657c-.834-.957-2.602-1.651-4.559-1.114l.265.964zm-5.826 7.103c.447-1.642 1.336-3.274 2.414-4.575 1.085-1.31 2.315-2.229 3.411-2.528l-.263-.965c-1.375.376-2.767 1.466-3.918 2.855-1.16 1.4-2.121 3.157-2.609 4.951l.965.262zm.534 4.35c-.554-.574-.777-1.343-.812-2.154-.035-.812.122-1.617.278-2.196l-.965-.261c-.17.63-.353 1.546-.312 2.5.04.954.309 1.995 1.091 2.805l.72-.695zM9.25 46.88c.566-.557.58-1.47.029-2.046l-.722.693a.457.457 0 01-.009.64l.702.713zm-2.042-.028a1.434 1.434 0 002.04.03l-.698-.716a.434.434 0 01-.622-.008l-.72.694zm-1.244-7.13c-.778 2.865-.394 5.435 1.244 7.13l.72-.695c-1.31-1.356-1.722-3.513-1-6.173l-.964-.262zm7.85-9.137c-1.867.509-3.582 1.896-4.939 3.571-1.362 1.682-2.406 3.704-2.911 5.566l.965.262c.466-1.718 1.442-3.617 2.723-5.198 1.286-1.587 2.836-2.803 4.425-3.237l-.263-.964zm6.463 1.694c-1.235-1.418-3.701-2.448-6.463-1.694l.263.964c2.389-.651 4.461.256 5.446 1.387l.754-.657zm.72 3.3c.454-1.105.141-2.315-.72-3.3l-.753.657c.677.775.824 1.592.549 2.263l.925.38zm-4.048 2.193c1.268-.083 2.18-.378 2.83-.788.657-.414 1.023-.93 1.219-1.405l-.925-.38c-.122.295-.357.643-.826.939-.475.299-1.215.56-2.364.636l.066.998zm-1.535.763c.286-.44.749-.711 1.535-.763l-.066-.998c-1.015.067-1.808.447-2.308 1.216l.84.545zm-.179 4.755c-.176-.846-.305-1.785-.297-2.649.008-.877.156-1.612.476-2.107l-.84-.543c-.472.73-.627 1.693-.636 2.641-.009.96.134 1.974.318 2.861l.979-.203zm5.977-5.923c-1.496-.047-2.886.89-4.025 2.02-1.157 1.145-2.153 2.585-2.867 3.742l.85.525c.698-1.13 1.646-2.492 2.72-3.557 1.093-1.082 2.223-1.764 3.29-1.73l.032-1zm1.42.69a1.914 1.914 0 00-1.419-.69l-.034.999c.274.01.514.127.685.33l.767-.64zm.553 1.495c-.052-.559-.202-1.077-.555-1.497l-.765.643c.173.207.283.5.324.947l.996-.093zm8.694-3.258c-5.052.514-7.66 1.68-9.47 2.889l.556.832c1.651-1.103 4.096-2.225 9.015-2.726l-.1-.995zm4.884-34.906c-.52.619-10.775 13.217-5.319 35.522l.972-.238c-5.353-21.884 4.711-34.163 5.113-34.64l-.766-.644zm.083-.079c-.002.002-.028.022-.055.049l.71.704a.405.405 0 01-.025.023c-.005.005-.01.008-.006.006l-.624-.782zm-.075.079a.45.45 0 01.056-.063l.019-.016.624.782.033-.029a.552.552 0 00.07-.077l-.803-.597zm.163-.165a1.44 1.44 0 00-.131.126l.738.675a.46.46 0 01.043-.04l-.65-.761zm.105-.084a.881.881 0 00-.135.112l.71.704c.004-.004-.002.003-.017.013l-.559-.83zm.121-.074c-.027.016-.073.041-.121.074l.558.83a.841.841 0 01.054-.033l-.49-.871zm.02-.011l-.02.011.491.871.02-.011-.49-.871zm.1-.054c-.058.026-.106.057-.12.066l.533.846.01-.006.002-.002-.016.008L37.28 1zm.219-.074a1.418 1.418 0 00-.21.07l.391.92a.427.427 0 01.063-.02L37.5.926zm-.005.002c-.007.003-.002 0 .005-.001a.38.38 0 01.05-.01l.143.989c.064-.01.12-.03.121-.03l-.319-.948zM37.49.93l.328.944L37.49.93zm.042-.014l-.037.012.318.948.003-.001-.007.002-.277-.96zm.336-.04a1.4 1.4 0 00-.307.033l.219.976a.4.4 0 01.088-.01v-1zm.156.004l-.139-.004-.034 1 .139.004.034-1zm1.083.514a1.432 1.432 0 00-1.1-.514v1c.13 0 .25.056.334.156l.766-.642zm5.366 35.346c5.359-22.197-4.846-34.731-5.367-35.348l-.764.645c.4.475 10.416 12.69 5.16 34.468l.971.235zm15.64 6.407c-.06-.223-.563-1.785-2.836-3.39-2.265-1.599-6.258-3.22-13.26-3.633l-.06.998c6.878.407 10.674 1.991 12.744 3.453 2.063 1.456 2.441 2.811 2.447 2.832l.965-.26zm.008.041c.005.02.007.036.008.043v.007c.001.001.001.002 0 0v-.008a.532.532 0 00-.013-.073l-.97.24a.4.4 0 01-.01-.05v.008a.532.532 0 00.014.073l.97-.24zm.023.137l-.014-.092-.989.15.014.093.989-.15zm.015.175c0-.074-.01-.142-.015-.17l-.99.14.003.021.002.012V43.5h1zm-.002-.038l.002.038h-1l.002.053.996-.09zm0-.004l-.001-.007-.994.113.001.007.994-.113zm.002.02l-.003-.025-.992.123c0 .002 0 0 0 0l-.001-.01.996-.087zm.002.05a.578.578 0 00-.002-.05l-.996.088a.436.436 0 01-.002-.037h1zm-.002.056a.73.73 0 00.002-.055h-1v-.018l.998.072zm-.006.056a.956.956 0 00.006-.056l-.997-.073v-.004l-.001.009.992.124zm0 .005v-.005l-.992-.124v.006l.992.123zm.002-.023v-.003l-.997-.07v.003l.997.07zm-.021.167a.958.958 0 00.02-.167l-.997-.07-.001.02-.001.012v-.002l.979.207zm-.003.017a1.12 1.12 0 00.007-.039l-.987-.163v.005l.98.197zm-.006.029a1.16 1.16 0 00.006-.03l-.98-.197-.002.008.976.219zm-.014.056l.014-.056-.976-.219a1.83 1.83 0 01-.008.035l.97.24zm-.01.038l.005-.017-.96-.282-.005.016.96.282zm-.002.006l.003-.011-.962-.273-.003.012.962.272zm-.04.117c.022-.052.035-.101.04-.117l-.963-.271a1.11 1.11 0 00-.005.017l.005-.01.924.381zm-18.82-5.005h-2.43v1h2.43v-1zM38.377 5.48c2.696 4.639 7.691 16.41 2.385 33.92l.957.29c5.404-17.834.324-29.892-2.478-34.713l-.864.503zm.932 34.066V5.23h-1v34.317h1zm-1.881 0V5.479h-1v34.068h1zm-2.793.5h2.293v-1h-2.293v1zm1.858-34.814c-2.822 4.99-7.636 16.97-2.337 34.459l.957-.29c-5.203-17.17-.469-28.867 2.25-33.677l-.87-.492zm19.634 39.023l-.005.016.956.296.004-.015-.955-.297zm.542.644l-.13-.991.13.991zm.365-2.22c-.579.514-.799 1.226-.907 1.576l.955.297c.112-.362.268-.817.616-1.124l-.664-.749zM43.476 39c9.453.491 12.575 3.188 13.495 4.363l.788-.617C56.596 41.262 53.147 38.5 43.528 38l-.052.998zm-.172 1.938c.246-.78.471-1.547.68-2.305l-.964-.266a62.414 62.414 0 01-.67 2.27l.954.301zM41.93 41.95c.63 0 1.183-.413 1.373-1.011l-.954-.302a.443.443 0 01-.42.313v1zm-7.991 0h7.99v-1h-7.99v1zm-1.373-1.011c.19.598.742 1.01 1.373 1.01v-1a.443.443 0 01-.42-.312l-.953.302zm-.633-2.148c.197.704.405 1.419.633 2.146l.954-.298c-.224-.716-.43-1.42-.623-2.117l-.964.269zm-9.074 3.656c.813-.635 1.725-1.308 3.166-1.898 1.447-.593 3.45-1.11 6.437-1.395l-.094-.995c-3.059.29-5.162.825-6.721 1.464-1.566.642-2.562 1.38-3.403 2.036l.615.788zm.168-.165l.02-.164-.99-.13-.023.168.992.126zm-.036.274l.035-.274-.992-.126c-.01.088-.021.173-.034.262l.99.138zm-.2 2.237c-.026-.513.105-1.524.2-2.24L22 42.421c-.089.67-.24 1.795-.209 2.421l1-.05zm-.275-.967c-.298.406-.413.521-.48.562l.51.86c.276-.164.509-.466.776-.83l-.806-.592zm.004-.006l-.003.005.803.595.004-.005-.804-.595zm2.87-1.74c-1.602 0-2.395 1.1-2.87 1.74l.804.595c.49-.66 1.013-1.335 2.066-1.335v-1zm2.868 1.74c-.474-.64-1.268-1.74-2.868-1.74v1c1.052 0 1.575.675 2.065 1.335l.803-.595zm.003.004l-.003-.004-.803.596.003.004.803-.596zm.56.577a.187.187 0 01-.062-.007.195.195 0 01-.056-.037c-.088-.073-.209-.217-.44-.532l-.806.594c.22.298.41.543.606.706.235.196.477.276.759.276v-1zm.56-.577c-.233.315-.354.46-.442.533a.193.193 0 01-.056.037.183.183 0 01-.061.007v1c.282 0 .523-.08.758-.276.195-.163.385-.408.605-.705l-.803-.596zm.004-.004l-.003.005.803.595.004-.005-.804-.595zm2.87-1.74c-1.602 0-2.396 1.1-2.87 1.74l.803.595c.49-.66 1.013-1.335 2.067-1.335v-1zm2.868 1.74c-.474-.64-1.268-1.74-2.868-1.74v1c1.051 0 1.575.675 2.064 1.335l.804-.595zm.003.004l-.003-.004-.803.596.003.004.803-.596zm.56.577a.18.18 0 01-.06-.007.195.195 0 01-.056-.037c-.088-.074-.21-.218-.444-.533l-.803.596c.22.298.411.542.607.705.233.195.475.276.756.276v-1zm.56-.577c-.233.315-.355.46-.442.533a.19.19 0 01-.056.037.182.182 0 01-.062.007v1c.283 0 .524-.08.759-.276.195-.163.385-.408.605-.705l-.803-.596zm2.872-1.744c-1.606 0-2.4 1.105-2.872 1.745l.805.594c.487-.66 1.01-1.34 2.067-1.34v-1zm2.867 1.74c-.474-.64-1.267-1.74-2.867-1.74v1c1.05 0 1.574.675 2.064 1.335l.803-.595zm.004.005l-.004-.005-.803.595.003.005.804-.595zm.562.578a.183.183 0 01-.062-.007.193.193 0 01-.057-.037c-.088-.073-.21-.218-.443-.534l-.804.594c.22.3.411.545.607.708.235.196.477.276.76.276v-1zm.56-.576c-.233.315-.355.46-.443.533a.194.194 0 01-.055.037.185.185 0 01-.062.006v1c.282 0 .524-.08.758-.276.195-.163.385-.407.606-.705l-.804-.595zm.004-.005l-.004.005.804.595.003-.004-.803-.596zm2.87-1.74c-1.602 0-2.396 1.1-2.87 1.74l.803.596c.49-.66 1.013-1.336 2.067-1.336v-1zm2.867 1.74c-.474-.639-1.267-1.74-2.867-1.74v1c1.051 0 1.574.675 2.064 1.336l.803-.596zm.004.005l-.004-.005-.803.596.003.005.804-.596zm.56.576a.184.184 0 01-.062-.007.196.196 0 01-.057-.037c-.087-.073-.209-.217-.44-.531l-.805.593c.22.298.41.543.605.706.235.196.477.276.759.276v-1zm.562-.578c-.233.316-.355.46-.443.534a.192.192 0 01-.057.037.183.183 0 01-.062.007v1c.282 0 .524-.08.759-.276.196-.163.386-.409.607-.708l-.804-.594zm2.871-1.745c-1.603 0-2.399 1.105-2.871 1.745l.804.594c.488-.66 1.014-1.34 2.067-1.34v-1zm2.87 1.74c-.474-.64-1.267-1.74-2.87-1.74v1c1.054 0 1.578.675 2.067 1.335l.803-.595zm.004.004l-.004-.004-.803.596.003.004.804-.596zm.56.577a.178.178 0 01-.06-.007.195.195 0 01-.057-.037c-.088-.074-.21-.218-.443-.533l-.803.596c.22.298.41.542.606.705.234.195.475.276.757.276v-1zm.144.483a42.728 42.728 0 01-.2-.458l.001-.001.004-.002.007-.003a.294.294 0 01.036-.012.276.276 0 01.03-.008c.01-.002.005 0-.022 0v1a1.125 1.125 0 00.28-.035.627.627 0 00.05-.017l.008-.003.004-.002h.002v-.001h.001l-.201-.458zm-.306-.612a8.186 8.186 0 01-.116.345.231.231 0 01.008-.012.393.393 0 01.034-.046l.76.65a.754.754 0 00.117-.2c.021-.048.04-.102.058-.151.035-.1.07-.211.094-.29l-.956-.296zM7.288 31.136c-.12-.145-1.21-1.405-2.608-1.405-.646 0-1.57.268-2.297 1.542l-.812 1.424h7.02l-1.303-1.561z"/><path fill-rule="evenodd" clip-rule="evenodd" d="M5.464 34.575l.966.102-.122.973c-.355 2.63-3.102 5.404-3.22 5.522l-1.272 1.272-.315-1.78c-.374-2.093-.108-3.702.788-4.782 1.253-1.512 3.175-1.307 3.175-1.307zM3.735 37.1a2.046 2.046 0 00-.378.752c.2-.301.392-.617.557-.935a1.64 1.64 0 00-.179.183z"/><path d="M6.43 34.677l.497.062.063-.506-.507-.054-.053.498zm-.966-.102l-.053.497.053-.498zm.844 1.075l.496.067v-.005l-.496-.062zm-3.22 5.522l.354.354.002-.002-.355-.352zm-1.272 1.272l-.492.087.167.945.679-.678-.354-.354zm-.315-1.78l.493-.087-.493.087zm.788-4.782l.385.32-.385-.32zm1.068 1.97l-.48-.14-.054.186.085.174.449-.22zm.378-.752l.384.32.003-.003-.387-.317zm-.378.752l-.45.22.385.783.481-.727-.416-.276zm.557-.935l.444.23-.777-.603.333.373zm2.569-2.738l-.967-.102-.105.995.967.102.105-.995zm.321 1.533l.123-.973-.993-.125-.122.973.992.125zm-3.36 5.812c.067-.068.804-.812 1.571-1.88.759-1.054 1.594-2.487 1.789-3.927l-.991-.134c-.161 1.19-.876 2.458-1.61 3.477a15.357 15.357 0 01-1.47 1.76l.71.704zM2.17 42.798l1.272-1.272-.707-.708-1.272 1.273.707.707zM1.009 40.75l.315 1.78.985-.174-.315-1.78-.985.174zm.895-5.188c-1.03 1.24-1.281 3.026-.895 5.19l.984-.177c-.361-2.023-.081-3.456.68-4.374l-.769-.64zm3.56-.989l.052-.497h-.012l-.023-.003a3.91 3.91 0 00-.348-.008c-.225.005-.537.03-.892.107-.71.154-1.618.523-2.337 1.39l.77.638c.535-.645 1.215-.929 1.778-1.05a3.765 3.765 0 01.903-.083l.048.003h.01s0 .001 0 0h-.001l.052-.496zm-1.627 3.418a1.55 1.55 0 01.282-.571l-.767-.642a2.548 2.548 0 00-.475.933l.96.28zm-.031-.36l-.898.44.898-.44zm-.336-.945a9.695 9.695 0 01-.53.889l.833.552c.207-.31.41-.642.585-.981l-.888-.46zm.652.73c.034-.041.074-.082.125-.127l-.666-.746a2.135 2.135 0 00-.232.239l.773.634z"/><path fill-rule="evenodd" clip-rule="evenodd" d="M12.707 29.291c0 .992-.802 1.8-1.785 1.8a1.793 1.793 0 01-1.783-1.8c0-.992.8-1.799 1.783-1.799.985 0 1.785.807 1.785 1.8zm-1.687 0a.1.1 0 00-.098-.1.098.098 0 00-.097.1c0 .11.195.11.195 0z"/><path d="M10.922 31.59a2.295 2.295 0 002.285-2.299h-1c0 .72-.582 1.3-1.285 1.3v1zm-2.283-2.299a2.293 2.293 0 002.283 2.3v-1a1.293 1.293 0 01-1.283-1.3h-1zm2.283-2.299a2.293 2.293 0 00-2.283 2.3h1c0-.72.58-1.3 1.283-1.3v-1zm2.285 2.3a2.293 2.293 0 00-2.285-2.3v1c.705 0 1.285.58 1.285 1.3h1zm-2.285.4a.4.4 0 01-.402-.4h1a.6.6 0 00-.598-.6v1zm.403-.4c0 .2-.161.4-.403.4v-1a.598.598 0 00-.597.6h1zm-.805 0c0-.143.072-.267.171-.34a.387.387 0 01.232-.079c.06 0 .147.016.232.079.098.073.17.197.17.34h-1c0 .196.097.36.232.461a.613.613 0 00.732 0 .573.573 0 00.231-.462h-1z"/></svg><svg viewBox="0 0 52 33" id="travel" xmlns="http://www.w3.org/2000/svg"><path fill-rule="evenodd" clip-rule="evenodd" d="M49.75 22.276v2.747c.57.116 1 .616 1 1.212v.987c0 .6-.43 1.098-1 1.214v.025h-6.565c-.363 2.24-2.322 3.959-4.686 3.959-2.363 0-4.322-1.719-4.683-3.959H16.435c-.363 2.24-2.322 3.959-4.686 3.959-2.363 0-4.324-1.72-4.685-3.959H3.249l-.748.002a1.247 1.247 0 01-1.252-1.239v-.987c0-.685.563-1.24 1.252-1.24h.748v-11.13c0-3.412 2.805-6.187 6.252-6.187l5.77-.004V5.703C9.185 5.129 4.029 4.056 2.468 2.512a.733.733 0 01-.134-.868.752.752 0 01.797-.387c4.976.882 12.714 1 19.625 1a1029.123 1029.123 0 005.345-.014c.914-.003 1.8-.006 2.649-.006l6.437.002h.002c4.358 0 7.041-.029 10.522-.197a.758.758 0 01.757.537.74.74 0 01-.353.853c-.502.278-1.127.537-1.867.777V5.71a1.7 1.7 0 01-.963 1.549 1.773 1.773 0 01-.793.191c-.363 0-.725-.116-1.037-.346l-2.42-1.776c-3.082.444-6.898.727-11.285.827v1.527l5.248-.002c3.344 0 6.428 1.107 8.904 2.969l.205.158a14.659 14.659 0 014.66 6.241l.006.012.014.033.043.112c.013.032.026.064.037.096l.299.768h-.043a14.42 14.42 0 01.627 4.207zM36 16.586h10.932a13.23 13.23 0 00-3.553-4.453H36a.253.253 0 00-.25.247v3.959c0 .133.115.247.25.247zM44.75 5.71a.23.23 0 01-.139.223.232.232 0 01-.261-.023l-1.258-.922c.59-.112 1.142-.232 1.658-.358v1.08zM26.09 3.736c-1.086.003-2.2.007-3.332.007-4.439 0-9.22-.05-13.422-.319 4.035.754 9.838 1.287 16.664 1.287 6.273 0 11.76-.363 15.742-1.003a400.26 400.26 0 01-4.55.021h-.002l-6.44-.005c-1.168 0-2.404.003-3.69.01l-.97.002zm-9.319 2.1c3.01.238 6.186.36 9.229.36.764 0 1.514-.006 2.25-.016v1.5H16.771V5.836zM8.5 27.72c0 1.774 1.457 3.216 3.25 3.216S15 29.494 15 27.72c0-1.774-1.457-3.216-3.25-3.216S8.5 25.945 8.5 27.72zm30 3.216c-1.793 0-3.25-1.441-3.25-3.216 0-1.774 1.457-3.216 3.25-3.216s3.25 1.442 3.25 3.216c0 1.774-1.457 3.216-3.25 3.216zm0-7.916c2.363 0 4.324 1.718 4.686 3.958h6.064v-.495h-4.5v-1.484h3.5v-2.72c0-1.472-.25-2.885-.703-4.207H36c-.965 0-1.75-.777-1.75-1.732v-3.958c0-.955.785-1.732 1.75-1.732h5.111a13.293 13.293 0 00-6.113-1.484H9.502c-2.621 0-4.752 2.11-4.752 4.702v2.72h7.535v1.484H4.75v6.927h1v1.484h-3v.495h4.314c.364-2.24 2.323-3.958 4.686-3.958s4.324 1.718 4.686 3.958h17.379c.363-2.24 2.322-3.958 4.685-3.958z"/><path d="M49.75 25.023l.084.288.216-.063v-.225h-.3zm0 0l-.084-.288.024.582.06-.294zm0 3.413l-.06-.294-.24.049v.245h.3zm0 .025v.3h.3v-.3h-.3zm-6.565 0v-.3h-.255l-.041.252.296.048zm-9.37 0l.297-.047-.04-.253h-.256v.3zm-17.38 0v-.3h-.255l-.041.252.296.048zm-9.371 0l.296-.048-.04-.252h-.256v.3zm-3.815 0v-.3.3zm-.748.002v.3h.001v-.3zm.748-3.465v.3h.3v-.3h-.3zM9.501 7.68v.3-.3zm5.77-.004v.3h.3v-.3h-.3zm0-1.973h.3V5.43l-.272-.026-.028.299zM2.468 2.512l.211-.214-.21.214zm-.134-.868l-.265-.141.265.14zm.797-.387l-.053.296.053-.296zm23.923.99v-.3.3zm1.047-.004v.3-.3zm0 0l-.001-.3.001.3zm0 0v-.3.3zm0 0l.002.3-.001-.3zm0 0v-.3.3zm2.649-.006v-.3.3zm6.437.002v.3-.3zm10.524-.197l-.012-.3h-.003l.015.3zm.757.537l.289-.083-.289.083zm-.353.853l.145.262-.145-.262zm-1.867.777l-.093-.286-.207.067v.219h.3zm-.963 3.05l.134.268-.134-.268zm-1.83-.155l.178-.242-.178.242zm-2.42-1.776l.177-.242-.099-.073-.121.018.043.297zm-11.285.827l-.007-.3-.293.007v.293h.3zm0 1.527h-.3v.3h.3v-.3zm5.248-.002v-.3.3zm8.904 2.969l.184-.238-.003-.002-.18.24zm.205.158l.185-.237h-.001l-.184.237zm4.66 6.241l-.279.109.005.013.007.013.268-.135zm.006.012l.277-.116-.004-.01-.005-.01-.267.136zm.014.033l.283-.1-.003-.008-.003-.008-.277.116zm.043.112l-.279.11v.001l.279-.111zm0 0l.28-.108-.001-.003-.279.111zm0 0l-.28.108.002.004.278-.112zm0 0l.28-.108-.001-.003-.279.111zm0 0l-.28.109.002.003.278-.112zm0 0l.28-.11-.001-.001-.279.111zm.037.096l-.282.103.003.006.28-.109zm.299.768v.3h.439l-.16-.41-.279.11zm-.043 0v-.3h-.405l.118.387.287-.087zm-2.191-1.483v.3h.48l-.21-.432-.27.132zm-3.553-4.453l.19-.233-.084-.067h-.106v.3zm1.232-6.2l-.133-.27.133.27zm.139-.223h-.3.3zm-.4.2l.178-.242h-.001l-.177.242zm-1.258-.922l-.056-.295-.678.129.556.408.178-.242zm1.658-.358h.3v-.382l-.371.09.071.292zm-18.66-.894l.002.3-.001-.3zm0 0v-.3.3zm-3.332.007l-.027-.299.027.599v-.3zm0 0l.028.299-.027-.6v.3zM9.337 3.424l.02-.3-.075.595.055-.295zm32.407.284l.047.296-.051-.596.004.3zm-4.553.021v.3-.3zm-6.44-.005v-.3.3zm-3.69.01l.002.3-.001-.3zM16.773 5.835l.023-.299-.324-.026v.325h.3zm11.478.344h.3v-.304l-.304.004.004.3zm0 1.5v.3h.3v-.3h-.3zm-11.479 0h-.3v.3h.3v-.3zm26.415 19.297l-.297.048.041.252h.256v-.3zm6.064 0v.3h.3v-.3h-.3zm0-.495h.3v-.3h-.3v.3zm-4.5 0h-.3v.3h.3v-.3zm0-1.484v-.3h-.3v.3h.3zm3.5 0v.3h.3v-.3h-.3zm-.703-6.927l.284-.097-.07-.203h-.214v.3zm-6.436-7.422v.3l.138-.567-.138.267zM4.75 16.587h-.3v.3h.3v-.3zm7.535 0h.3v-.3h-.3v.3zm0 1.484v.3h.3v-.3h-.3zm-7.535 0v-.3h-.3v.3h.3zm0 6.927h-.3v.3h.3v-.3zm1 0h.3v-.3h-.3v.3zm0 1.484v.3h.3v-.3h-.3zm-3 0v-.3h-.3v.3h.3zm0 .495h-.3v.3h.3v-.3zm4.314 0v.3h.256l.04-.252-.296-.048zm9.372 0l-.297.048.041.252h.256v-.3zm17.379 0v.3h.255l.04-.252-.295-.048zm16.235-1.954v-2.747h-.6v2.747h.6zm-.217.288l-.167-.576.167.576zm1.217.924c0-.744-.536-1.363-1.24-1.506l-.12.588c.436.088.76.47.76.918h.6zm0 .987v-.987h-.6v.987h.6zm-1.24 1.508a1.543 1.543 0 001.24-1.508h-.6a.943.943 0 01-.76.92l.12.588zm.24-.269v-.025h-.6v.025h.6zm-6.865.3h6.565v-.6h-6.565v.6zM38.5 32.72c2.512 0 4.595-1.826 4.982-4.21l-.592-.097a4.44 4.44 0 01-4.39 3.707v.6zm-4.98-4.211c.385 2.384 2.47 4.21 4.98 4.21v-.6c-2.215 0-4.049-1.61-4.387-3.706l-.592.096zm-17.084.252h17.38v-.6h-17.38v.6zM11.75 32.72c2.512 0 4.595-1.826 4.982-4.21l-.592-.097c-.34 2.096-2.175 3.707-4.39 3.707v.6zm-4.981-4.211c.384 2.383 2.47 4.21 4.981 4.21v-.6c-2.215 0-4.051-1.612-4.389-3.706l-.592.096zm-3.519.252h3.815v-.6H3.249v.6zm-.747.002l.748-.002-.001-.6-.748.002.001.6zM.95 27.224c0 .85.698 1.54 1.552 1.54v-.6a.947.947 0 01-.952-.94h-.6zm0-.987v.987h.6v-.987h-.6zm1.552-1.54c-.852 0-1.552.687-1.552 1.54h.6c0-.516.425-.94.952-.94v-.6zm.748 0h-.748v.6h.748v-.6zm-.3-10.83v11.13h.6v-11.13h-.6zM9.501 7.38c-3.61 0-6.552 2.907-6.552 6.487h.6c0-3.243 2.668-5.887 5.952-5.887v-.6zm5.77-.004L9.5 7.38v.6l5.77-.004v-.6zm-.3-1.673v1.973h.6V5.703h-.6zM2.257 2.725c.431.427 1.088.801 1.9 1.134.818.334 1.815.635 2.946.904 2.264.537 5.09.95 8.14 1.238l.056-.597c-3.035-.286-5.83-.696-8.057-1.225-1.113-.264-2.078-.557-2.857-.876-.784-.32-1.356-.659-1.706-1.005l-.422.427zm-.189-1.221c-.214.405-.137.9.19 1.222l.42-.428a.433.433 0 01-.08-.514l-.53-.28zM3.183.962a1.052 1.052 0 00-1.114.54l.53.283a.452.452 0 01.479-.232l.105-.591zm19.573.995c-6.917 0-14.628-.12-19.573-.995l-.105.59c5.008.888 12.774 1.005 19.678 1.005v-.6zm4.297-.01c-1.386.006-2.83.01-4.297.01v.6c1.469 0 2.913-.004 4.3-.01l-.003-.6zm1.047-.004l-1.047.004.002.6 1.047-.004-.002-.6zm0 0l.002.6-.002-.6zm0 0l.002.6-.002-.6zm0 0l.002.6-.002-.6zm0 0l.002.6-.002-.6zm0 0l.002.6-.001-.6zm0 0l.003.6-.002-.6zm2.65-.006c-.85 0-1.736.003-2.65.006l.003.6c.914-.003 1.798-.006 2.647-.006v-.6zm6.437.002l-6.437-.002v.6l6.437.002v-.6zm.002 0h-.002v.6h.002v-.6zm10.507-.197c-3.473.168-6.151.197-10.507.197v.6c4.36 0 7.048-.029 10.536-.197l-.029-.6zm1.06.754a1.058 1.058 0 00-1.057-.754l.023.6a.458.458 0 01.458.32l.577-.166zm-.495 1.198a1.04 1.04 0 00.496-1.198l-.577.167a.44.44 0 01-.21.506l.29.525zm-1.92.8c.751-.243 1.395-.51 1.92-.8l-.292-.525c-.48.266-1.085.518-1.814.754l.185.571zm.207 1.216v-1.5h-.6v1.5h.6zm-1.13 1.817a2 2 0 001.13-1.817h-.6a1.4 1.4 0 01-.797 1.28l.268.537zm-.926.223c.316 0 .63-.075.927-.223l-.268-.537a1.47 1.47 0 01-.66.16v.6zm-1.215-.404c.363.267.787.404 1.215.404v-.6c-.299 0-.598-.095-.86-.288l-.355.484zm-2.42-1.776l2.42 1.776.355-.484-2.42-1.776-.355.484zm-11.1.885c4.394-.1 8.223-.383 11.32-.83l-.085-.594c-3.066.442-6.87.724-11.249.824l.014.6zm.293 1.227V6.155h-.6v1.527h.6zm4.948-.302l-5.248.002v.6l5.248-.002v-.6zm9.085 3.029a15.073 15.073 0 00-9.085-3.029v.6c3.277 0 6.298 1.085 8.724 2.909l.36-.48zm.208.16l-.205-.158-.367.475.205.159.367-.475zm4.756 6.37a14.96 14.96 0 00-4.755-6.369l-.369.474a14.359 14.359 0 014.565 6.113l.56-.218zm-.006-.015l-.006-.011-.535.27.006.012.535-.27zm.023.053l-.014-.033-.553.23.013.034.554-.23zm.045.117a2.989 2.989 0 01-.04-.102l-.565.2c.016.045.033.087.047.123l.558-.22zm0 0l-.558.222.558-.222zm0 .003l-.559.216.56-.216zm0-.003l-.557.223.557-.223zm.001.003l-.56.216.56-.216zm-.001-.003l-.557.223.557-.223zm.04.104l-.04-.103-.558.22.034.09.564-.207zm.297.762l-.3-.768-.558.218.298.767.56-.217zm-.323.409h.043v-.6h-.043v.6zm.927 3.907c0-1.491-.225-2.934-.64-4.295l-.574.175a14.12 14.12 0 01.614 4.12h.6zm-3.118-5.99H36v.6h10.932v-.6zm0 0v.6-.6zm-3.742-3.92a12.93 12.93 0 013.473 4.352l.538-.264a13.53 13.53 0 00-3.633-4.554l-.378.466zm-7.19.067h7.38v-.6H36v.6zm.05-.053a.055.055 0 01-.014.04.05.05 0 01-.036.013v-.6a.553.553 0 00-.55.547h.6zm0 3.959V12.38h-.6v3.959h.6zm-.05-.053a.05.05 0 01.036.013.055.055 0 01.014.04h-.6c0 .302.253.547.55.547v-.6zm8.744-10.084A.547.547 0 0044.971 6a.544.544 0 00.079-.29h-.6l.001-.004a.083.083 0 01.01-.023.08.08 0 01.016-.018c.004-.004.005-.004.001-.002l.266.538zm-.572-.05c.076.055.17.099.278.109.11.01.209-.017.294-.06l-.266-.537c-.004.002-.004.001.001 0a.082.082 0 01.048.004c.005.002.005.003 0 0l-.355.483zm-1.258-.922l1.258.922.355-.484-1.258-.922-.355.484zm1.765-.891a32.87 32.87 0 01-1.643.354l.112.59a33.472 33.472 0 001.673-.361l-.142-.583zm.371 1.371V4.63h-.6v1.08h.6zM26.092 4.036l-.002-.6.002.6zm-3.334.007c1.132 0 2.247-.004 3.334-.007l-.002-.6c-1.087.003-2.201.007-3.332.007v.6zm-.027-.599l.054.598-.054-.598zm-13.414.28c4.212.269 9.001.319 13.442.319v-.6c-4.44 0-9.212-.05-13.403-.318l-.039.598zm16.684.687c-6.813 0-12.597-.532-16.61-1.282l-.11.59c4.058.758 9.88 1.292 16.72 1.292v-.6zm15.694-1c-3.961.637-9.43 1-15.695 1v.6c6.283 0 11.786-.364 15.79-1.007l-.095-.592zm-4.503.618c1.727 0 3.195-.005 4.554-.02l-.007-.6c-1.356.015-2.821.02-4.547.02v.6zm-.002 0h.002v-.6h-.002v.6zm-6.44-.005l6.44.005v-.6l-6.44-.005v.6zm-3.688.01c1.285-.007 2.52-.01 3.688-.01v-.6c-1.168 0-2.405.003-3.69.01l.002.6zm-.97.002l.97-.003-.002-.6-.97.003.002.6zM26 5.896c-3.035 0-6.203-.122-9.205-.359l-.047.598c3.018.239 6.201.36 9.252.36v-.6zm2.246-.016c-.735.01-1.484.016-2.246.016v.6c.765 0 1.517-.006 2.254-.016l-.008-.6zm.304 1.8v-1.5h-.6v1.5h.6zm-11.779.3H28.25v-.6H16.771v.6zm-.3-2.144V7.68h.6V5.836h-.6zm-4.721 24.8c-1.63 0-2.95-1.311-2.95-2.917h-.6c0 1.943 1.594 3.516 3.55 3.516v-.6zm2.95-2.917c0 1.606-1.32 2.916-2.95 2.916v.6c1.956 0 3.55-1.573 3.55-3.516h-.6zm-2.95-2.916c1.63 0 2.95 1.31 2.95 2.916h.6c0-1.943-1.594-3.516-3.55-3.516v.6zM8.8 27.72c0-1.605 1.32-2.916 2.95-2.916v-.6c-1.956 0-3.55 1.573-3.55 3.516h.6zm26.15 0c0 1.943 1.594 3.516 3.55 3.516v-.6c-1.63 0-2.95-1.31-2.95-2.916h-.6zm3.55-3.516c-1.956 0-3.55 1.573-3.55 3.516h.6c0-1.605 1.32-2.916 2.95-2.916v-.6zm3.55 3.516c0-1.943-1.594-3.516-3.55-3.516v.6c1.63 0 2.95 1.31 2.95 2.916h.6zm-3.55 3.516c1.956 0 3.55-1.573 3.55-3.516h-.6c0 1.606-1.32 2.916-2.95 2.916v.6zm4.982-4.306c-.385-2.384-2.47-4.21-4.982-4.21v.6c2.215 0 4.051 1.61 4.39 3.706l.592-.096zm5.768-.252h-6.064v.6h6.064v-.6zm-.3-.195v.495h.6v-.495h-.6zm-4.2.3h4.5v-.6h-4.5v.6zm-.3-1.784v1.484h.6v-1.484h-.6zm3.8-.3h-3.5v.6h3.5v-.6zm-.3-2.42v2.72h.6v-2.72h-.6zm-.687-4.11a12.64 12.64 0 01.687 4.11h.6c0-1.507-.256-2.952-.72-4.304l-.567.194zM36 18.371h11.547v-.6H36v.6zm-2.05-2.032c0 1.123.922 2.032 2.05 2.032v-.6c-.802 0-1.45-.646-1.45-1.432h-.6zm0-3.958v3.958h.6v-3.958h-.6zM36 10.349c-1.128 0-2.05.908-2.05 2.032h.6c0-.786.648-1.432 1.45-1.432v-.6zm5.111 0H36v.6h5.111v-.6zm-6.113-.884c2.154 0 4.187.527 5.976 1.45l.275-.533a13.593 13.593 0 00-6.251-1.517v.6zm-25.496 0h25.496v-.6H9.502v.6zM5.05 13.867c0-2.423 1.994-4.402 4.452-4.402v-.6c-2.784 0-5.052 2.242-5.052 5.002h.6zm0 2.72v-2.72h-.6v2.72h.6zm7.235-.3H4.75v.6h7.535v-.6zm.3 1.784v-1.485h-.6v1.485h.6zm-7.835.3h7.535v-.6H4.75v.6zm.3 6.627V18.07h-.6v6.927h.6zm.7-.3h-1v.6h1v-.6zm.3 1.784v-1.484h-.6v1.484h.6zm-3.3.3h3v-.6h-3v.6zm.3.195v-.495h-.6v.495h.6zm4.014-.3H2.75v.6h4.314v-.6zm4.686-3.958c-2.512 0-4.595 1.826-4.982 4.21l.593.096c.34-2.096 2.174-3.706 4.389-3.706v-.6zm4.982 4.21c-.385-2.384-2.47-4.21-4.982-4.21v.6c2.215 0 4.051 1.61 4.39 3.706l.592-.096zm17.083-.252h-17.38v.6h17.38v-.6zM38.5 22.72c-2.511 0-4.595 1.826-4.982 4.21l.593.096c.34-2.096 2.174-3.706 4.389-3.706v-.6z"/><path fill-rule="evenodd" clip-rule="evenodd" d="M23.75 12.38v3.959c0 .955-.785 1.731-1.75 1.731h-5c-.965 0-1.75-.776-1.75-1.731V12.38c0-.955.785-1.731 1.75-1.731h5c.965 0 1.75.777 1.75 1.731zm-7 0v3.959c0 .135.115.247.25.247h5c.135 0 .25-.114.25-.247V12.38a.253.253 0 00-.25-.247h-5a.253.253 0 00-.25.247z"/><path d="M24.05 16.339V12.38h-.6v3.959h.6zM22 18.37c1.128 0 2.05-.908 2.05-2.031h-.6c0 .786-.648 1.431-1.45 1.431v.6zm-5 0h5v-.6h-5v.6zm-2.05-2.031c0 1.123.922 2.031 2.05 2.031v-.6c-.802 0-1.45-.645-1.45-1.431h-.6zm0-3.959v3.959h.6V12.38h-.6zM17 10.35c-1.128 0-2.05.908-2.05 2.031h.6c0-.786.648-1.431 1.45-1.431v-.6zm5 0h-5v.6h5v-.6zm2.05 2.031A2.043 2.043 0 0022 10.35v.6c.802 0 1.45.645 1.45 1.431h.6zm-7 3.959v-3.96h-.6v3.959h.6zm-.05-.053c.017 0 .028.007.035.013.007.007.015.02.015.04h-.6c0 .305.254.547.55.547v-.6zm5 0h-5v.6h5v-.6zm-.05.053c0-.021.009-.034.015-.04a.05.05 0 01.035-.013v.6c.297 0 .55-.245.55-.547h-.6zm0-3.959v3.959h.6v-3.96h-.6zm.05.053a.05.05 0 01-.035-.013.056.056 0 01-.015-.04h.6a.553.553 0 00-.55-.547v.6zm-5 0h5v-.6h-5v.6zm.05-.053a.056.056 0 01-.015.04.05.05 0 01-.035.013v-.6a.553.553 0 00-.55.547h.6z"/><path fill-rule="evenodd" clip-rule="evenodd" d="M26.5 10.649h5c.965 0 1.75.777 1.75 1.731v3.959c0 .955-.785 1.731-1.75 1.731h-5c-.965 0-1.75-.776-1.75-1.731V12.38c0-.955.785-1.731 1.75-1.731zm5 5.937c.135 0 .25-.114.25-.247V12.38a.253.253 0 00-.25-.247h-5a.253.253 0 00-.25.247v3.959c0 .133.115.247.25.247h5z"/><path d="M31.5 10.349h-5v.6h5v-.6zm2.05 2.031a2.043 2.043 0 00-2.05-2.031v.6c.802 0 1.45.645 1.45 1.431h.6zm0 3.959V12.38h-.6v3.959h.6zM31.5 18.37c1.128 0 2.05-.908 2.05-2.031h-.6c0 .786-.648 1.431-1.45 1.431v.6zm-5 0h5v-.6h-5v.6zm-2.05-2.031c0 1.123.922 2.031 2.05 2.031v-.6c-.802 0-1.45-.645-1.45-1.431h-.6zm0-3.959v3.959h.6V12.38h-.6zm2.05-2.031c-1.128 0-2.05.908-2.05 2.031h.6c0-.786.648-1.431 1.45-1.431v-.6zm4.95 5.99c0-.021.009-.034.015-.04a.05.05 0 01.035-.013v.6c.297 0 .55-.245.55-.547h-.6zm0-3.959v3.959h.6V12.38h-.6zm.05.053a.05.05 0 01-.035-.013.056.056 0 01-.015-.04h.6a.553.553 0 00-.55-.547v.6zm-5 0h5v-.6h-5v.6zm.05-.053a.056.056 0 01-.015.04.05.05 0 01-.035.013v-.6a.553.553 0 00-.55.547h.6zm0 3.959V12.38h-.6v3.959h.6zm-.05-.053a.05.05 0 01.035.013.056.056 0 01.015.04h-.6c0 .302.253.547.55.547v-.6zm5 0h-5v.6h5v-.6z"/><path fill-rule="evenodd" clip-rule="evenodd" d="M36.5 27.719c0-1.092.897-1.98 2-1.98s2 .89 2 1.98c0 1.092-.897 1.979-2 1.979s-2-.887-2-1.98zm1.5 0a.5.5 0 001 0 .498.498 0 00-.5-.495c-.275 0-.5.222-.5.495z"/><path d="M38.5 25.44c-1.266 0-2.3 1.018-2.3 2.279h.6c0-.924.76-1.68 1.7-1.68v-.6zm2.3 2.279c0-1.259-1.034-2.28-2.3-2.28v.6c.94 0 1.7.758 1.7 1.68h.6zm-2.3 2.279c1.266 0 2.3-1.019 2.3-2.28h-.6c0 .924-.76 1.68-1.7 1.68v.6zm-2.3-2.28a2.292 2.292 0 002.3 2.28v-.6c-.94 0-1.7-.756-1.7-1.68h-.6zm2.3.196a.198.198 0 01-.2-.195h-.6c0 .441.362.795.8.795v-.6zm.2-.195a.198.198 0 01-.2.195v.6c.438 0 .8-.354.8-.795h-.6zm-.2-.195c.113 0 .2.09.2.195h.6a.798.798 0 00-.8-.795v.6zm-.2.195c0-.104.087-.195.2-.195v-.6c-.438 0-.8.354-.8.795h.6z"/><path fill-rule="evenodd" clip-rule="evenodd" d="M9.75 27.719c0-1.092.896-1.98 2-1.98s2 .89 2 1.98c0 1.092-.896 1.979-2 1.979s-2-.89-2-1.98zm1.5 0a.5.5 0 001 0 .498.498 0 00-.5-.495c-.275 0-.5.222-.5.495z"/><path d="M11.75 25.44c-1.266 0-2.3 1.018-2.3 2.279h.6c0-.924.76-1.68 1.7-1.68v-.6zm2.3 2.279c0-1.259-1.034-2.28-2.3-2.28v.6c.94 0 1.7.758 1.7 1.68h.6zm-2.3 2.279c1.266 0 2.3-1.019 2.3-2.28h-.6c0 .924-.76 1.68-1.7 1.68v.6zm-2.3-2.28c0 1.26 1.034 2.28 2.3 2.28v-.6c-.94 0-1.7-.758-1.7-1.68h-.6zm2.3.196a.198.198 0 01-.2-.195h-.6c0 .441.362.795.8.795v-.6zm.2-.195a.198.198 0 01-.2.195v.6c.438 0 .8-.354.8-.795h-.6zm-.2-.195c.113 0 .2.09.2.195h.6a.798.798 0 00-.8-.795v.6zm-.2.195c0-.104.087-.195.2-.195v-.6c-.438 0-.8.354-.8.795h.6zM17.25 24.997h15.5v1.485h-15.5v-1.485z"/></svg><svg viewBox="0 0 19 25" id="water" xmlns="http://www.w3.org/2000/svg"><path d="M5.248 15.744a2.702 2.702 0 01-2.7-2.7.575.575 0 011.15 0c0 .856.696 1.553 1.552 1.553.855 0 1.553-.697 1.553-1.552a.575.575 0 011.148 0 2.708 2.708 0 01-2.703 2.699z"/><path d="M9.5 15.744a2.702 2.702 0 01-2.7-2.7.575.575 0 011.15 0c0 .856.696 1.553 1.552 1.553.855 0 1.553-.697 1.553-1.552a.575.575 0 011.148 0A2.708 2.708 0 019.5 15.744z"/><path d="M13.752 15.744a2.702 2.702 0 01-2.7-2.7.575.575 0 011.15 0c0 .856.696 1.553 1.552 1.553.855 0 1.553-.697 1.553-1.552a.575.575 0 011.148 0 2.708 2.708 0 01-2.703 2.699z"/><path fill-rule="evenodd" clip-rule="evenodd" d="M.422 15.069c0 5.005 4.072 9.077 9.078 9.077 5.006 0 9.078-4.071 9.08-9.077C18.58 8.237 10.237.795 9.881.48a.573.573 0 00-.74-.016C8.784.752.422 7.592.422 15.069zM9.484 1.678zm0 0c-1.62 1.42-7.916 7.324-7.916 13.39 0 4.373 3.557 7.93 7.93 7.93 4.373 0 7.93-3.557 7.93-7.93.001-5.543-6.338-11.876-7.944-13.39z"/><path d="M9.5 24.146l.112-.223-.053-.026H9.5v.25zm0 0l-.112.224.053.027h.06v-.25zm9.08-9.077h.25-.25zM9.881.48l-.166.187.166-.187zm-.74-.016l.156.195h.001L9.141.464zm.343 1.212l.165.189.502-.439h-.667v.25zm0 0v-.25h-.629l.457.432.172-.182zm7.943 13.391h-.25.25zM9.5 23.897c-4.868 0-8.828-3.96-8.828-8.828h-.5c0 5.143 4.184 9.327 9.328 9.327v-.5zm.113.026l-.225.447.225-.447zm8.717-8.854c-.002 4.867-3.962 8.828-8.83 8.828v.5c5.144 0 9.328-4.184 9.33-9.328h-.5zM9.716.668c.172.152 2.334 2.08 4.45 4.815 2.125 2.747 4.164 6.258 4.164 9.586h.5c0-3.505-2.132-7.13-4.268-9.891C12.418 2.406 10.23.455 10.047.293l-.331.375zM9.298.659c.123-.1.3-.095.417.009l.332-.374A.823.823 0 008.984.27l.314.388zM.672 15.07c0-3.652 2.046-7.175 4.171-9.843C6.963 2.566 9.126.797 9.297.66L8.984.27c-.186.15-2.381 1.944-4.532 4.645C2.306 7.608.172 11.244.172 15.069h.5zM9.32 1.489l.328.377-.328-.377zm.164.438v-.5.5zm.172-.431l-.344.363.344-.363zm-.337-.006c-.816.716-2.81 2.56-4.601 4.992-1.787 2.426-3.4 5.472-3.4 8.586h.5c0-2.953 1.536-5.892 3.302-8.29C6.882 4.389 8.846 2.57 9.65 1.867l-.33-.376zm-8 13.578c0 4.511 3.668 8.18 8.179 8.18v-.5c-4.235 0-7.68-3.445-7.68-7.68h-.5zm8.179 8.18c4.51 0 8.18-3.67 8.18-8.18h-.5c0 4.235-3.445 7.68-7.68 7.68v.5zm8.18-8.18c0-2.854-1.625-5.879-3.417-8.353-1.798-2.483-3.797-4.457-4.605-5.22l-.343.365c.797.751 2.77 2.701 4.543 5.149 1.78 2.457 3.322 5.37 3.321 8.059h.5z"/></svg><svg viewBox="0 0 40 25" id="wawe" xmlns="http://www.w3.org/2000/svg"><path d="M26.358 4.754l.262-.236c.175-.155.345-.313.51-.469.162-.166.353-.276.521-.417.173-.135.34-.274.509-.399.35-.224.676-.472 1.007-.662.33-.184.638-.387.944-.525l.434-.224.409-.181c.52-.241.95-.388 1.247-.496.297-.096.457-.146.457-.146l.015-.005a.18.18 0 00.116-.116.181.181 0 00-.116-.226s-.18-.057-.509-.117C32 .51 31.792.47 31.551.454c-.243-.02-.526-.05-.84-.04-.158.002-.325-.002-.5.008l-.547.05c-.386.027-.79.115-1.23.204-.224.037-.442.107-.67.177l-.706.22c-.462.194-.968.386-1.46.649-.242.136-.492.278-.743.429l-.38.228-.363.264c-.24.184-.487.37-.738.56-.26.183-.465.42-.703.638l-.701.685c-.212.251-.423.507-.63.771-.205.266-.428.53-.617.812-.181.287-.352.585-.53.882-.168.304-.356.595-.506.918-.146.329-.282.665-.42 1.002a35.75 35.75 0 00-.404 1.016l-.268.954-.27.96-.15.53-.118.436c-.042.147-.075.295-.122.44l-.158.423-.158.427c-.054.142-.124.274-.186.414a12.419 12.419 0 01-1.974 3.037 14.841 14.841 0 01-2.693 2.38c-.976.677-2.008 1.22-3.022 1.678a23.313 23.313 0 01-2.967 1.082 30.126 30.126 0 01-4.696.962 18.65 18.65 0 01-1.824.155.175.175 0 00-.17.151.174.174 0 00.152.195h.004s.68.086 1.87.11c.595.014 1.32.008 2.152-.044a26.64 26.64 0 002.791-.306c2.031-.342 4.422-.962 6.775-2.242 1.174-.637 2.337-1.436 3.375-2.434a15.046 15.046 0 002.694-3.444c.092-.161.191-.317.276-.482l.244-.495c.165-.331.325-.665.457-1.006l.21-.51.052-.128.026-.063.007-.017-.017.051.012-.028.098-.23.395-.917.394-.909c.148-.253.285-.505.42-.756.134-.251.27-.499.392-.752.137-.247.302-.487.447-.73.144-.244.289-.485.424-.729.15-.233.314-.449.463-.673.157-.221.296-.45.448-.668l.485-.607.238-.301c.076-.103.154-.203.242-.288l.506-.535.239-.264z"/><path fill-rule="evenodd" clip-rule="evenodd" d="M38.83 23.451c.636.284 1.007.422 1.007.422a.119.119 0 01.072.153.125.125 0 01-.138.077s-.398-.077-1.08-.251a26.819 26.819 0 01-2.792-.893l-.275-.107a27.668 27.668 0 01-.61-.242l-.432-.19a38.979 38.979 0 01-.503-.22l-.37-.181-.602-.298-.74-.416-.253-.141-.318-.203-.682-.434a26.509 26.509 0 01-.704-.521 66.11 66.11 0 00-.28-.212l-.503-.44-.445-.391a69.294 69.294 0 00-.267-.281 34.278 34.278 0 01-.617-.657l-.404-.516-.201-.26-.103-.13-.025-.031-.014-.017-.002-.005s.017.031-.03-.05l-.006-.008-.041-.063-.326-.5c-.033-.054-.067-.104-.1-.154a2.46 2.46 0 01-.224-.382l-.153-.306c-.161-.317-.324-.637-.41-.964a33.435 33.435 0 00-.044-.13c-.056-.171-.113-.341-.156-.514l-.046-.285-.062-.389a4.58 4.58 0 00-.016-.13 2.792 2.792 0 01-.022-.206l.003-.342.006-.194c.003-.161.007-.321.032-.48.028-.174.064-.343.1-.511l.031-.15c.026-.144.082-.284.138-.42.028-.07.055-.137.079-.205l.12-.299c.028-.064.065-.126.102-.187a10.38 10.38 0 00.154-.256c.076-.126.15-.25.235-.363l.032-.038c.256-.3.5-.586.798-.798.216-.196.468-.329.705-.454.067-.036.133-.07.197-.106.113-.05.228-.089.34-.126A8.955 8.955 0 0029.148 8c.132-.044.259-.087.393-.1a3.723 3.723 0 011.465-.006c.196.042.364.088.507.13a6.638 6.638 0 01.623.304c.06.035.08.111.045.171a.122.122 0 01-.09.062l-.017.003-.29.043c-.076.014-.164.024-.264.036l-.066.007a8.704 8.704 0 00-.133.039c-.091.026-.189.055-.29.08a1.271 1.271 0 00-.328.12 3.441 3.441 0 01-.156.069 1.48 1.48 0 00-.338.176 3.415 3.415 0 01-.17.103c-.117.07-.226.163-.336.256-.053.045-.106.09-.16.133-.05.059-.101.114-.154.168-.1.106-.2.21-.278.344-.276.36-.466.813-.572 1.303a1.49 1.49 0 01-.03.136c-.02.078-.04.155-.038.24l-.007.09a4.494 4.494 0 01-.028.306c-.007.073-.003.15.002.227.003.063.007.126.004.188v.053c0 .052.001.105-.001.158.002.05.01.1.018.151a2.986 2.986 0 01.033.3l.02.214c.037.151.07.306.1.462.03.21.088.399.147.591.032.107.066.214.094.327.017.102.077.233.138.364l.07.154.246.544.03.068.003.005.003.007.069.116.14.23.28.465.378.495.292.38.758.819c.272.254.543.507.813.756l.28.234.563.466.859.637c.29.197.577.39.854.576l.833.519c.173.103.344.2.512.296a29.384 29.384 0 001.72.908c.436.21.818.387 1.136.528zm-9.51-7.466c0-.001 0-.002-.002-.002l.009.014.003.004a.252.252 0 01-.01-.017z"/><path d="M31.488 2.852a7.76 7.76 0 00-1.275.366.09.09 0 00-.057.082.086.086 0 00.087.088c.001 0 .517.003 1.276.091.38.037.815.113 1.273.193.458.103.941.196 1.405.342.116.04.233.072.346.115l.33.146c.22.095.426.2.634.271.211.063.416.118.617.155l.583.093c.185.028.364.038.527.046.158.017.304.027.429.027.25.005.417-.013.417-.013l.007-.002.023-.005a.11.11 0 00.065-.14s-.055-.15-.19-.374a3.516 3.516 0 00-.267-.385 3.618 3.618 0 00-.416-.416 3.753 3.753 0 00-.26-.213c-.096-.06-.192-.128-.298-.186a2.602 2.602 0 00-.69-.31 3.201 3.201 0 00-.796-.129c-.275-.024-.55-.036-.825-.05-.273-.024-.545-.021-.811-.026-.266-.007-.529.02-.78.033-.252.03-.492.043-.72.085a16.01 16.01 0 00-.634.116zm5.622 6.151c.166.074.295.157.425.217.238.133.404.213.404.213l.01.005c.013.007.028.01.045.01a.1.1 0 00.096-.101l-.003-.128c-.005-.084-.01-.208-.044-.36-.036-.147-.08-.335-.172-.528a3.073 3.073 0 00-.358-.625 6.06 6.06 0 00-.257-.318c-.099-.098-.197-.207-.308-.304a3.58 3.58 0 00-.753-.525 4.275 4.275 0 00-.904-.326c-.314-.085-.632-.151-.944-.224a12.705 12.705 0 00-1.837-.293 15.37 15.37 0 00-1.6-.06c-.932.012-1.545.105-1.545.105a.09.09 0 00-.075.07.088.088 0 00.07.103s.6.115 1.476.346c.437.113.94.26 1.47.435.264.085.531.188.804.284.27.1.54.21.803.328.263.12.517.256.751.406.238.147.459.299.682.422.223.121.437.227.651.32l.595.278c.19.09.364.175.517.25zm-.928 2.086a2.324 2.324 0 00-.253-.386 1.62 1.62 0 00-.364-.34c-.14-.1-.31-.16-.477-.225-.17-.056-.34-.111-.505-.173a7.092 7.092 0 00-.981-.274 7.55 7.55 0 00-.866-.128c-.505-.052-.848-.03-.848-.03a.076.076 0 00-.061.042.072.072 0 00.034.096s.301.141.734.367c.214.118.458.26.714.414l.384.243c.132.08.256.173.383.26.121.092.237.194.344.299.1.11.207.207.31.29.102.083.225.138.335.195.108.058.226.1.334.143.103.045.21.081.312.111.103.03.185.065.266.087.16.048.276.068.276.068l.005.001a.096.096 0 00.111-.076s.02-.11.009-.29a1.541 1.541 0 00-.05-.32 2.534 2.534 0 00-.146-.374z"/></svg><svg viewBox="0 0 26 24" id="wind" xmlns="http://www.w3.org/2000/svg"><path d="M17.334 8.71H0v2.166h17.334A5.423 5.423 0 0022.75 5.46 5.423 5.423 0 0017.334.044a5.423 5.423 0 00-5.417 5.416h2.167a3.254 3.254 0 013.25-3.25 3.254 3.254 0 013.25 3.25 3.254 3.254 0 01-3.25 3.25zm3.25 4.334H0v2.166h20.584a3.254 3.254 0 013.25 3.25 3.254 3.254 0 01-3.25 3.25 3.254 3.254 0 01-3.25-3.25h-2.167a5.423 5.423 0 005.417 5.416A5.423 5.423 0 0026 18.46a5.423 5.423 0 00-5.416-5.416z"/></svg></svg>